<?xml version="1.0" encoding="utf-8"?>
<!-- Generator: Adobe Illustrator 22.0.0, SVG Export Plug-In . SVG Version: 6.00 Build 0)  -->
<svg version="1.1" id="Layer_1" xmlns="http://www.w3.org/2000/svg" xmlns:xlink="http://www.w3.org/1999/xlink" x="0px" y="0px" width="101"
	 viewBox="0 0 80 41.4" style="enable-background:new 0 0 80 41.4;" xml:space="preserve">
<style type="text/css">
	.st0{fill:#FFFFFF;}
	.st1{fill:#FFC548;}
</style>
<g>
	<g>
		<polygon class="st0" points="5.2,34.9 5.1,34.9 5.1,34.9 3.2,39.1 1.3,34.9 1.3,34.9 1.3,34.9 0.4,34.9 0.4,34.9 0.4,34.9 
			0.4,39.9 0.4,40 0.4,40 1,40 1,40 1,39.9 1,35.7 2.9,40 3,40 3,40 3.4,40 3.5,40 3.5,40 5.4,35.7 5.4,39.9 5.4,40 5.4,40 6,40 
			6,40 6,39.9 6,34.9 6,34.9 6,34.9 		"/>
		<path class="st0" d="M10.4,35.2C10.2,35.1,10,35,9.8,35c-0.1,0-0.2,0-0.4,0c-0.1,0-0.2,0-0.4,0H7.5h0v0v5v0h0h0.5h0v0v-2H9
			c0.1,0,0.3,0,0.4,0c0.1,0,0.3,0,0.4,0c0.3,0,0.5-0.1,0.7-0.2c0.5-0.3,0.7-0.7,0.7-1.2C11.1,35.9,10.9,35.5,10.4,35.2z M10.5,36.4
			c0,0.4-0.2,0.7-0.6,0.9c-0.1,0.1-0.3,0.1-0.4,0.1l-0.2,0l-1.1,0v-2h1.1l0.2,0c0.2,0,0.3,0.1,0.4,0.1C10.3,35.7,10.5,36,10.5,36.4z
			"/>
		<polygon class="st0" points="15.4,39.5 15.4,34.9 15.4,34.9 15.4,34.9 14.8,34.9 14.8,34.9 14.8,34.9 14.8,39.9 14.8,40 14.8,40 
			17.6,40 17.6,40 17.6,39.9 17.6,39.5 17.6,39.5 17.6,39.5 		"/>
		<path class="st0" d="M20.4,36.1c-0.6,0-1.1,0.2-1.5,0.6c-0.4,0.4-0.6,0.9-0.6,1.4c0,0.5,0.2,1,0.6,1.4c0.4,0.4,0.9,0.6,1.5,0.6
			c0.6,0,1.1-0.2,1.5-0.6c0.4-0.4,0.6-0.9,0.6-1.4c0-0.5-0.2-1-0.6-1.4C21.5,36.3,21,36.1,20.4,36.1z M21.9,38.1
			c0,0.4-0.1,0.8-0.4,1.1c-0.3,0.3-0.7,0.4-1.1,0.4c-0.4,0-0.8-0.1-1.1-0.4c-0.3-0.3-0.4-0.6-0.4-1c0-0.4,0.1-0.8,0.4-1
			c0.3-0.3,0.7-0.4,1.1-0.4c0.4,0,0.8,0.1,1.1,0.4C21.8,37.3,21.9,37.7,21.9,38.1z"/>
		<path class="st0" d="M27.1,36.2L27.1,36.2L27.1,36.2l0,0.6c-0.4-0.5-0.9-0.7-1.5-0.7c-0.6,0-1.1,0.2-1.5,0.6
			c-0.4,0.4-0.6,0.9-0.6,1.4c0,0.5,0.2,1,0.6,1.4c0.4,0.4,0.9,0.6,1.5,0.6c0.3,0,0.6-0.1,0.9-0.2c0.3-0.1,0.5-0.3,0.6-0.5v0.2
			c0,0.4-0.1,0.7-0.4,1c-0.2,0.2-0.6,0.4-1,0.4c-0.7,0-1.2-0.3-1.4-0.9l0,0h0h-0.5h-0.1l0,0.1c0.1,0.4,0.4,0.8,0.8,1
			c0.4,0.2,0.8,0.4,1.3,0.4c0.7,0,1.2-0.2,1.6-0.7c0.2-0.2,0.3-0.4,0.3-0.7c0-0.1,0-0.2,0-0.4c0-0.1,0-0.2,0-0.4v-3.1v0h0H27.1z
			 M27.1,38.1c0,0.4-0.1,0.7-0.4,1c-0.3,0.3-0.7,0.4-1.1,0.4c-0.4,0-0.8-0.1-1.1-0.4c-0.3-0.3-0.4-0.6-0.4-1c0-0.4,0.1-0.8,0.4-1
			c0.3-0.3,0.7-0.4,1.1-0.4c0.4,0,0.8,0.1,1.1,0.4C26.9,37.4,27.1,37.7,27.1,38.1z"/>
		<polygon class="st0" points="29,34.9 29,34.9 29,34.9 29,35.8 29,35.8 29,35.8 29.5,35.8 29.6,35.8 29.6,35.8 29.6,34.9 
			29.6,34.9 29.5,34.9 		"/>
		<polygon class="st0" points="29,36.2 29,36.2 29,36.3 29,39.9 29,40 29,40 29.5,40 29.6,40 29.6,39.9 29.6,36.3 29.6,36.2 
			29.5,36.2 		"/>
		<path class="st0" d="M32.5,37.9c-0.1,0-0.2-0.1-0.3-0.1L32,37.7l-0.1,0l-0.1,0c-0.1,0-0.2-0.1-0.3-0.1c-0.2-0.1-0.3-0.2-0.3-0.4
			c0-0.3,0.2-0.5,0.6-0.5c0.3,0,0.5,0.2,0.6,0.5l0,0h0H33h0v0c0-0.3-0.1-0.5-0.3-0.7c-0.2-0.2-0.5-0.3-0.8-0.3
			c-0.3,0-0.6,0.1-0.8,0.3c-0.2,0.2-0.3,0.5-0.3,0.8c0,0.3,0.1,0.5,0.3,0.7c0.1,0.1,0.2,0.1,0.3,0.2c0.1,0,0.2,0.1,0.3,0.1l0.3,0.1
			c0.1,0,0.2,0.1,0.3,0.1c0.2,0.1,0.3,0.3,0.3,0.5c0,0.4-0.2,0.6-0.7,0.6c-0.4,0-0.7-0.2-0.7-0.7l0,0h0h-0.5h0v0v0
			c0,0.3,0.1,0.6,0.4,0.8c0.2,0.2,0.5,0.3,0.9,0.3c0.8,0,1.3-0.4,1.3-1.2c0-0.3-0.1-0.6-0.3-0.8C32.8,38.1,32.7,38,32.5,37.9z"/>
		<polygon class="st0" points="35.2,36.2 35.2,34.9 35.2,34.9 35.2,34.9 34.7,34.9 34.6,34.9 34.6,34.9 34.6,36.2 33.9,36.2 
			33.8,36.2 33.8,36.3 33.8,36.7 33.8,36.7 33.9,36.7 34.6,36.7 34.6,39.9 34.6,40 34.7,40 35.2,40 35.2,40 35.2,39.9 35.2,36.7 
			36.1,36.7 36.2,36.7 36.2,36.7 36.2,36.3 36.2,36.2 36.1,36.2 		"/>
		<polygon class="st0" points="37.1,34.9 37.1,34.9 37.1,34.9 37.1,35.8 37.1,35.8 37.1,35.8 37.7,35.8 37.7,35.8 37.7,35.8 
			37.7,34.9 37.7,34.9 37.7,34.9 		"/>
		<polygon class="st0" points="37.1,36.2 37.1,36.2 37.1,36.3 37.1,39.9 37.1,40 37.1,40 37.7,40 37.7,40 37.7,39.9 37.7,36.3 
			37.7,36.2 37.7,36.2 		"/>
		<path class="st0" d="M42.4,38.8L42.4,38.8L42.4,38.8c-0.3,0.5-0.8,0.8-1.4,0.8c-0.4,0-0.8-0.1-1.1-0.4c-0.3-0.3-0.5-0.6-0.5-1.1
			c0-0.4,0.2-0.8,0.5-1c0.3-0.3,0.7-0.4,1.1-0.4c0.6,0,1.1,0.3,1.4,0.8l0,0h0H43H43l0-0.1c-0.2-0.4-0.4-0.7-0.8-0.9
			c-0.4-0.2-0.8-0.3-1.2-0.3c-0.6,0-1.1,0.2-1.5,0.6c-0.4,0.4-0.6,0.9-0.6,1.4c0,0.6,0.2,1,0.6,1.4c0.4,0.4,0.9,0.6,1.5,0.6
			c0.9,0,1.6-0.4,2-1.2l0-0.1H43H42.4z"/>
		<path class="st0" d="M45.8,37.9c-0.1,0-0.2-0.1-0.3-0.1l-0.2-0.1l-0.1,0l-0.1,0c-0.1,0-0.2-0.1-0.3-0.1c-0.2-0.1-0.3-0.2-0.3-0.4
			c0-0.3,0.2-0.5,0.6-0.5c0.3,0,0.5,0.2,0.6,0.5l0,0h0h0.5h0v0c0-0.3-0.1-0.5-0.3-0.7c-0.2-0.2-0.5-0.3-0.8-0.3
			c-0.3,0-0.6,0.1-0.8,0.3c-0.2,0.2-0.3,0.5-0.3,0.8c0,0.3,0.1,0.5,0.3,0.7c0.1,0.1,0.2,0.1,0.3,0.2c0.1,0,0.2,0.1,0.3,0.1l0.3,0.1
			c0.1,0,0.2,0.1,0.3,0.1c0.2,0.1,0.3,0.3,0.3,0.5c0,0.4-0.2,0.6-0.7,0.6c-0.4,0-0.7-0.2-0.7-0.7l0,0h0h-0.5h0v0v0
			c0,0.3,0.1,0.6,0.4,0.8c0.2,0.2,0.5,0.3,0.9,0.3c0.8,0,1.3-0.4,1.3-1.2c0-0.3-0.1-0.6-0.3-0.8C46,38.1,45.9,38,45.8,37.9z"/>
		<polygon class="st0" points="50,34.9 49.9,34.9 49.9,34.9 49.9,35.8 49.9,35.8 50,35.8 50.5,35.8 50.5,35.8 50.5,35.8 50.5,34.9 
			50.5,34.9 50.5,34.9 		"/>
		<polygon class="st0" points="50,36.2 49.9,36.2 49.9,36.3 49.9,39.9 49.9,40 50,40 50.5,40 50.5,40 50.5,39.9 50.5,36.3 
			50.5,36.2 50.5,36.2 		"/>
		<path class="st0" d="M53.6,36.1c-0.5,0-0.9,0.2-1.2,0.5v-0.4v0h0h-0.5h0v0v3.7v0h0h0.5h0v0v-2.1c0-0.2,0-0.4,0.1-0.5
			c0.1-0.2,0.2-0.3,0.3-0.4c0.2-0.2,0.5-0.3,0.8-0.3c0.3,0,0.6,0.1,0.8,0.3c0.1,0.1,0.2,0.3,0.3,0.5c0.1,0.2,0.1,0.3,0.1,0.5v2v0h0
			h0.5h0v0v-2c0-0.5-0.2-1-0.5-1.3C54.6,36.3,54.2,36.1,53.6,36.1z"/>
		<polygon class="st0" points="57.8,36.2 57.8,34.9 57.8,34.9 57.7,34.9 57.2,34.9 57.2,34.9 57.2,34.9 57.2,36.2 56.4,36.2 
			56.3,36.2 56.3,36.3 56.3,36.7 56.3,36.7 56.4,36.7 57.2,36.7 57.2,39.9 57.2,40 57.2,40 57.7,40 57.8,40 57.8,39.9 57.8,36.7 
			58.7,36.7 58.7,36.7 58.7,36.7 58.7,36.3 58.7,36.2 58.7,36.2 		"/>
		<path class="st0" d="M60.6,36.3c-0.2,0.1-0.3,0.2-0.4,0.4v-0.4v0h0h-0.5h0v0v3.7v0h0h0.5h0v0v-2.2c0-0.7,0.4-1,1.1-1.1l0,0v0v-0.5
			v0l0,0C61,36.1,60.8,36.2,60.6,36.3z"/>
		<path class="st0" d="M65.8,36.2L65.8,36.2L65.8,36.2l0,0.6c-0.3-0.4-0.9-0.7-1.5-0.7c-0.6,0-1.1,0.2-1.5,0.6
			c-0.4,0.4-0.6,0.9-0.6,1.4c0,0.6,0.2,1,0.6,1.4c0.4,0.4,0.9,0.6,1.5,0.6c0.6,0,1.2-0.2,1.5-0.7v0.5v0h0h0.5h0v0v-3.7v0h0H65.8z
			 M65.8,38.1c0,0.4-0.1,0.8-0.4,1c-0.3,0.3-0.7,0.4-1.1,0.4c-0.5,0-0.8-0.1-1.1-0.4c-0.3-0.3-0.4-0.6-0.4-1c0-0.4,0.1-0.8,0.4-1.1
			c0.3-0.3,0.7-0.4,1.1-0.4c0.4,0,0.8,0.1,1.1,0.4C65.7,37.4,65.8,37.7,65.8,38.1z"/>
		<path class="st0" d="M69.5,36.1c-0.5,0-0.9,0.2-1.2,0.5v-0.4v0h0h-0.5h0v0v3.7v0h0h0.5h0v0v-2.1c0-0.2,0-0.4,0.1-0.5
			c0.1-0.2,0.2-0.3,0.3-0.4c0.2-0.2,0.5-0.3,0.8-0.3c0.3,0,0.6,0.1,0.8,0.3c0.1,0.1,0.2,0.3,0.3,0.5c0.1,0.2,0.1,0.3,0.1,0.5v2v0h0
			h0.5h0v0v-2c0-0.5-0.2-1-0.5-1.3C70.5,36.3,70,36.1,69.5,36.1z"/>
		<path class="st0" d="M74.4,36.1c-0.6,0-1.1,0.2-1.5,0.6c-0.4,0.4-0.6,0.9-0.6,1.4c0,0.5,0.2,1,0.6,1.4c0.4,0.4,0.9,0.6,1.5,0.6
			c0.4,0,0.8-0.1,1.2-0.4c0.4-0.2,0.6-0.6,0.8-1l0-0.1h-0.1h-0.5h0l0,0c-0.1,0.3-0.3,0.5-0.5,0.6c-0.3,0.1-0.5,0.2-0.8,0.2
			c-0.4,0-0.7-0.1-1-0.4c-0.3-0.2-0.4-0.5-0.5-0.9h3.6h0l0,0l0-0.1c0-0.5-0.2-1-0.6-1.4C75.5,36.3,75,36.1,74.4,36.1z M73,37.8
			c0.1-0.3,0.2-0.6,0.5-0.8c0.3-0.2,0.6-0.4,1-0.4c0.4,0,0.7,0.1,1,0.4c0.3,0.2,0.4,0.5,0.5,0.8H73z"/>
		<polygon class="st0" points="79.7,36.2 78.8,36.2 78.8,34.9 78.8,34.9 78.7,34.9 78.2,34.9 78.2,34.9 78.2,34.9 78.2,36.2 
			77.4,36.2 77.3,36.2 77.3,36.3 77.3,36.7 77.3,36.7 77.4,36.7 78.2,36.7 78.2,39.9 78.2,40 78.2,40 78.7,40 78.8,40 78.8,39.9 
			78.8,36.7 79.7,36.7 79.7,36.7 79.7,36.7 79.7,36.3 79.7,36.2 		"/>
	</g>
	<g>
		<g>
			<path class="st1" d="M4.1,0.1L0,30.8h7.4l2.8-19.2l5.9,19.2h7l5.8-19.2l2.7,19.2h7.7L35.2,0h-9.3l-6.1,20.6L13.5,0.1
				C13.5,0.1,4.3,0.1,4.1,0.1z"/>
			<path class="st1" d="M42.4,0.1l1,6.9h13.9c0,0,3,0.1,4.3,2.2c0.4,0.7,1.3,4.4-1.4,5.8c-1.5,0.8-2.3,0.7-2.3,0.7l-5.6,0.1
				l-0.6-4.1l-7.7,0.1l2.6,19.1h7.7l-1.2-8.5h5c0,0,3.7,0.1,6.5-1.7c2.8-1.7,5.6-4.1,5.2-10.3C69.7,5.3,66.2,0.6,58.8,0
				C45,0.1,42.4,0.1,42.4,0.1z"/>
		</g>
		<path class="st1" d="M76.6,6.3c2.1,0,3.4-1.4,3.4-3.1C80,1.4,78.7,0,76.7,0c-2.1,0-3.4,1.4-3.4,3.1C73.3,4.8,74.6,6.3,76.6,6.3z"
			/>
		<rect x="73.7" y="9.2" class="st1" width="6.1" height="21.6"/>
	</g>
</g>
</svg>
