<?xml version="1.0" encoding="utf-8"?>
<!-- Generator: Adobe Illustrator 22.0.0, SVG Export Plug-In . SVG Version: 6.00 Build 0)  -->
<svg version="1.1" id="Layer_1" xmlns="http://www.w3.org/2000/svg" xmlns:xlink="http://www.w3.org/1999/xlink" x="0px" y="0px" width="100"
	 viewBox="0 0 81.6 17" style="enable-background:new 0 0 81.6 17;" xml:space="preserve">
<style type="text/css">
	.st0{fill:#231F20;}
	.st1{fill:#FFFFFF;}
	.st2{fill:#14965C;}
	.st3{fill:#00A463;}
</style>
<g id="XMLID_38_">
	<rect id="XMLID_124_" x="16.3" class="st0" width="65.3" height="17"/>
	<path id="XMLID_121_" class="st1" d="M49.8,11.8c-1.1,0-1.7-0.3-2.3-0.8v3.3h-1.8V5.9h1.8v0.6C48.1,6,49,5.7,49.8,5.7
		c1.3,0,2.4,0.4,3.2,1c0.6,0.5,1,1.2,1,2C54,10.5,52.3,11.8,49.8,11.8 M51.4,7.5c-0.4-0.4-1-0.6-1.7-0.6c-1.4,0-2.2,0.7-2.2,1.8
		c0,0.5,0.2,0.9,0.5,1.2c0.4,0.4,1,0.6,1.7,0.6c0.8,0,1.3-0.2,1.7-0.6C51.8,9.6,52,9.2,52,8.7C52,8.3,51.8,7.8,51.4,7.5"/>
	<path id="XMLID_118_" class="st1" d="M61.9,5c-0.4,0-0.8-0.1-1-0.3c-0.2-0.1-0.3-0.3-0.3-0.5c0-0.2,0.1-0.4,0.3-0.5
		c0.2-0.2,0.6-0.3,1-0.3c0.4,0,0.8,0.1,1,0.3C63,3.8,63.1,4,63.1,4.2C63.1,4.6,62.6,5,61.9,5 M62.9,11.7h-2V5.9h2V11.7z"/>
	<path id="XMLID_116_" class="st1" d="M67.2,11.9c-1.6,0-2.5-0.3-3.4-1l-0.1-0.1l0.1-0.1l1.3-0.7l0.1,0l0.1,0c0.5,0.3,1,0.6,1.9,0.6
		c0.6,0,1.1-0.1,1.4-0.3c0.1-0.1,0.1-0.1,0.1-0.2c0-0.5-0.9-0.6-1.6-0.7l-0.2,0c-1.4-0.2-2.9-0.5-2.9-1.7c0-0.4,0.2-0.8,0.5-1.1
		c0.6-0.5,1.8-0.8,3-0.8c1.4,0,2.4,0.3,3,1l0.1,0.1l-1.4,0.7l-0.1,0l-0.1,0c-0.4-0.3-0.9-0.5-1.6-0.5c-0.6,0-1.2,0.2-1.2,0.5
		c0,0.5,1,0.6,1.7,0.7c0.1,0,0.2,0,0.3,0C69.6,8.4,71,8.7,71,9.9C71,11.4,68.9,11.9,67.2,11.9"/>
	<path id="XMLID_114_" class="st1" d="M21.8,11.6V8.3c0-0.4-0.1-0.7-0.4-0.9C21,7,20.5,6.9,20.1,6.9c-1.4,0-1.7,0.6-1.7,1.7v3h-2
		V5.9h2v0.6c0.5-0.5,1.3-0.8,2.4-0.8c1,0,1.9,0.2,2.4,0.7c0.5,0.4,0.7,0.9,0.7,1.5v3.6L21.8,11.6"/>
	<path id="XMLID_111_" class="st1" d="M24.3,7V5.8h1.3V4.3h2v1.6h2.1V7h-2.1v2.6c0,0.6,0.2,0.9,1.2,0.9c0.3,0,0.7,0,1-0.2v1.2
		c-0.4,0.1-1,0.2-1.5,0.2c-2.2,0-2.7-0.7-2.7-2V7L24.3,7L24.3,7z"/>
	<path id="XMLID_108_" class="st1" d="M36.6,10c-0.6,0.4-1.1,0.5-1.9,0.5c-1,0-1.8-0.2-2.3-0.7c-0.2-0.2-0.3-0.4-0.3-0.6h6.3
		c0.3,0,0.5-0.1,0.5-0.5c0-0.7-0.3-1.4-0.9-1.9c-0.7-0.7-2-1.1-3.4-1.1c-1.5,0-2.8,0.5-3.6,1.3c-0.5,0.5-0.8,1.1-0.8,1.8
		s0.3,1.4,0.8,1.8c0.8,0.8,2.1,1.2,3.6,1.2c0.7,0,1.5-0.1,2.1-0.3c0.3-0.1,0.5-0.2,0.8-0.4c0.2-0.1,0.5-0.3,0.7-0.6
		c0.1-0.1,0.2-0.3,0.3-0.4c0-0.1-0.2-0.1-0.3-0.1L36.6,10L36.6,10 M36.7,8.1H32c0.1-0.4,1.1-1.3,2.5-1.3c1.4,0,2.1,0.6,2.4,1
		C37.1,8.1,36.9,8.1,36.7,8.1"/>
	<path id="XMLID_107_" class="st1" d="M44.8,5.8c0,0-0.4-0.1-0.8-0.1c-0.9,0-1.8,0.6-2.3,1.1V5.9h-2v5.8h2V8.8
		c0-1.1,0.7-1.7,2.2-1.7c0.2,0,0.4,0,0.7,0l0.1,0L44.8,5.8L44.8,5.8z"/>
	<path id="XMLID_106_" class="st1" d="M59.9,5.8c0,0-0.4-0.1-0.8-0.1c-0.9,0-1.8,0.6-2.3,1.1V5.9h-2v5.8h2V8.8
		c0-1.1,0.7-1.7,2.2-1.7c0.2,0,0.4,0,0.7,0l0.1,0V5.8z"/>
	<path id="XMLID_103_" class="st1" d="M77.9,10c-0.6,0.4-1.1,0.5-1.9,0.5c-1,0-1.8-0.2-2.3-0.7c-0.2-0.2-0.3-0.4-0.3-0.6h6.3
		c0.3,0,0.5-0.1,0.5-0.5c0-0.7-0.3-1.4-0.9-1.9c-0.7-0.7-2-1.1-3.4-1.1c-1.5,0-2.8,0.5-3.6,1.3c-0.5,0.5-0.8,1.1-0.8,1.8
		s0.3,1.4,0.8,1.8c0.8,0.8,2.1,1.2,3.6,1.2c0.7,0,1.5-0.1,2.1-0.3c0.3-0.1,0.5-0.2,0.8-0.4c0.2-0.1,0.5-0.3,0.7-0.6
		c0.1-0.1,0.2-0.3,0.3-0.4c0-0.1-0.2-0.1-0.3-0.1L77.9,10L77.9,10 M78,8.1h-4.7c0.1-0.4,1.1-1.3,2.5-1.3c1.4,0,2.1,0.6,2.4,1
		C78.3,8.1,78.2,8.1,78,8.1"/>
	<path id="XMLID_100_" class="st1" d="M15.3,8c-0.3-1.6-2.2-3.2-5.1-3.2l0,0C7.5,4.8,5.6,6.1,5,7.5c0,0,0,0.1-0.1,0.2l0,0H0v1.5
		c2.5,0,13.5,0,13.8,0c0.7,0,1.2,0,1.4-0.3C15.3,8.7,15.3,8.5,15.3,8 M13.1,7.6c0,0.1-0.2,0.1-0.3,0.1H7c0-0.1,0.1-0.2,0.1-0.2
		c0.5-0.8,1.8-1.4,3-1.4c1.3,0,2.3,0.4,2.9,1.2C13.1,7.5,13.1,7.6,13.1,7.6"/>
	<path id="XMLID_99_" class="st1" d="M10.1,10.7c-1.2,0-2.3-0.5-2.8-1.2H5.1c0.6,1.4,2.3,2.7,5.1,2.7c2.8,0,3.9-1,4.7-1.9
		c0,0,0-0.1,0.1-0.1h-2.6C11.8,10.6,10.8,10.7,10.1,10.7"/>
	<path id="XMLID_96_" class="st2" d="M0,0v7.7h4.9l0,0c0,0,0-0.2,0.1-0.2c0.6-1.5,2.5-2.9,5.1-2.9l0,0c3,0,4.8,1.7,5.1,3.4
		c0.1,0.5,0,0.8-0.1,1c-0.2,0.2-0.7,0.2-1.4,0.2c-0.3,0-11.1,0-13.8,0V17h16.3V0H0z M14.8,10.4c-0.7,1-1.8,2-4.7,2
		c-2.7,0-4.5-1.4-5.1-2.9h2.2c0.6,0.7,1.7,1.2,2.8,1.2c0.7,0,1.7-0.1,2.2-0.5h2.6C14.8,10.3,14.8,10.3,14.8,10.4"/>
	<path id="XMLID_95_" class="st3" d="M13.1,7.6c0,0,0-0.1,0-0.2c-0.5-0.8-1.6-1.2-2.9-1.2c-1.2,0-2.5,0.5-3,1.4c0,0-0.1,0.1-0.1,0.2
		h5.7C12.9,7.8,13,7.7,13.1,7.6"/>
	<path id="XMLID_94_" class="st3" d="M14.3,8.5c0.1-0.1,0.1-0.2,0.1-0.3c0-0.8-1.3-2.8-4.3-2.8C7.2,5.3,6.2,7,5.9,7.5
		c0,0,0,0.1-0.1,0.2h0.3c0,0,0-0.1,0.1-0.2c0.2-0.4,1.3-1.9,3.9-1.9c3,0,4,2,4,2.5c0,0,0,0.1,0,0.1c-0.1,0.1-0.2,0.1-0.9,0.1H0v0.3
		h13.1C14.1,8.6,14.2,8.5,14.3,8.5"/>
	<path id="XMLID_93_" class="st3" d="M13.8,10.2L13.8,10.2c-1.2,1.5-3.6,1.5-3.9,1.5c-2.1,0-3.5-1.1-4-2.1h0.3
		c0.5,0.8,1.7,1.7,3.7,1.8c0.1,0,2.3,0.1,3.5-1.2C13.5,10.2,13.8,10.2,13.8,10.2z"/>
	<path id="XMLID_88_" class="st1" d="M1.9,15.1c0.1,0.1,0.2,0.3,0.2,0.5c0,0.2,0,0.4-0.2,0.5s-0.3,0.2-0.5,0.2S1,16.3,0.8,16.2
		s-0.2-0.3-0.2-0.5c0-0.2,0-0.4,0.2-0.5C1,15,1.2,14.9,1.4,14.9S1.7,14.9,1.9,15.1 M2,15c-0.1-0.1-0.4-0.2-0.6-0.2S0.9,14.9,0.7,15
		c-0.1,0.1-0.2,0.3-0.2,0.6c0,0.2,0.1,0.4,0.2,0.6c0.1,0.2,0.4,0.2,0.6,0.2s0.4-0.1,0.6-0.2s0.2-0.4,0.2-0.6C2.2,15.3,2.1,15.2,2,15
		 M1.5,15.6c0,0-0.1,0-0.1,0H1.2v-0.3h0.1c0.1,0,0.1,0,0.2,0c0,0,0,0,0,0.1C1.6,15.5,1.6,15.5,1.5,15.6 M1,16.1h0.1v-0.4h0.1
		c0.1,0,0.1,0,0.2,0c0,0,0.1,0.1,0.1,0.2v0v0l0,0l0,0h0.1l0,0c0,0,0,0,0,0v0v0c0,0,0-0.1,0-0.1c0,0-0.1-0.1-0.1-0.1c0,0,0.1,0,0.1,0
		c0,0,0.1-0.1,0.1-0.2c0-0.1,0-0.2-0.1-0.2c0,0-0.1,0-0.2,0H1V16.1z"/>
	<g id="XMLID_39_">
		<g>
			<path id="XMLID_242_" class="st1" d="M54.8,14.3c-0.1-0.1-0.2-0.1-0.4-0.1c-0.2,0-0.5,0.1-0.5,0.4v1.3h-0.7v-2h0.7v0.2
				c0.1-0.1,0.4-0.2,0.7-0.2s0.5,0,0.7,0.2L54.8,14.3z"/>
			<path id="XMLID_239_" class="st1" d="M56.3,14.9c0,0.2,0.2,0.4,0.6,0.4c0.3,0,0.5,0,0.7-0.2l0.4,0.3c-0.3,0.2-0.6,0.3-1.1,0.3
				c-0.7,0-1.4-0.2-1.4-1.1c0-0.7,0.5-1.1,1.3-1.1c0.8,0,1.3,0.4,1.3,1v0.2L56.3,14.9L56.3,14.9z M57.4,14.3
				c-0.1-0.1-0.2-0.2-0.5-0.2c-0.2,0-0.4,0.1-0.5,0.2c0,0.1,0,0.1,0,0.2h1.1C57.5,14.5,57.5,14.4,57.4,14.3z"/>
			<path id="XMLID_237_" class="st1" d="M60.7,15.8v-1.3c0-0.3-0.2-0.4-0.5-0.4c-0.2,0-0.5,0.1-0.5,0.4v1.3H59v-2h0.7v0.2
				c0.2-0.1,0.5-0.2,0.7-0.2c0.3,0,0.5,0,0.7,0.2c0.2,0.1,0.3,0.3,0.3,0.6v1.3L60.7,15.8L60.7,15.8z"/>
			<path id="XMLID_235_" class="st1" d="M63.1,15.8c-0.6,0-0.9-0.3-0.9-0.6v-1H62v-0.4h0.3v-0.6H63v0.6h0.5v0.4H63v1
				c0,0.1,0.1,0.2,0.2,0.2h0.3v0.4H63.1z"/>
			<path id="XMLID_233_" class="st1" d="M64.1,14.9v-0.5h1.7v0.5H64.1z"/>
			<path id="XMLID_230_" class="st1" d="M68.2,15.8v-0.2c-0.2,0.1-0.4,0.2-0.7,0.2c-0.3,0-0.6,0-0.8-0.2c-0.1-0.1-0.2-0.3-0.2-0.5
				c0-0.3,0.3-0.6,1-0.6h0.7v-0.1c0-0.2-0.1-0.3-0.5-0.3c-0.3,0-0.4,0-0.6,0.1l-0.5-0.3c0.3-0.2,0.6-0.3,1.1-0.3
				c0.8,0,1.3,0.2,1.3,0.7v1.4L68.2,15.8L68.2,15.8z M68.1,14.9h-0.6c-0.3,0-0.4,0.1-0.4,0.2s0.1,0.2,0.4,0.2c0.2,0,0.3,0,0.5-0.1
				c0.1,0,0.1-0.1,0.1-0.2V14.9z"/>
			<path id="XMLID_228_" class="st1" d="M69.7,14.9v-0.5h1.7v0.5H69.7z"/>
			<path id="XMLID_226_" class="st1" d="M73.3,15.8c-0.6,0-1.3-0.2-1.3-1.1c0-0.8,0.7-1.1,1.3-1.1c0.4,0,0.7,0.1,1,0.3l-0.5,0.3
				c-0.1-0.1-0.3-0.1-0.5-0.1s-0.3,0-0.4,0.1c-0.1,0.1-0.1,0.2-0.1,0.4c0,0.2,0,0.3,0.1,0.4c0.1,0.1,0.2,0.1,0.4,0.1s0.3,0,0.5-0.1
				l0.5,0.3C74.1,15.7,73.8,15.8,73.3,15.8z"/>
			<path id="XMLID_223_" class="st1" d="M76.5,15.8v-0.2c-0.2,0.1-0.4,0.2-0.7,0.2s-0.6,0-0.8-0.2c-0.1-0.1-0.2-0.3-0.2-0.5
				c0-0.3,0.3-0.6,1-0.6h0.7v-0.1c0-0.2-0.1-0.3-0.5-0.3c-0.3,0-0.4,0-0.6,0.1l-0.5-0.3c0.3-0.2,0.6-0.3,1.1-0.3
				c0.8,0,1.3,0.2,1.3,0.7v1.4L76.5,15.8L76.5,15.8z M76.4,14.9h-0.6c-0.3,0-0.4,0.1-0.4,0.2s0.1,0.2,0.4,0.2c0.2,0,0.3,0,0.5-0.1
				c0.1,0,0.1-0.1,0.1-0.2V14.9z"/>
			<path id="XMLID_221_" class="st1" d="M79.6,14.3c-0.1-0.1-0.2-0.1-0.4-0.1c-0.2,0-0.5,0.1-0.5,0.4v1.3H78v-2h0.7v0.2
				c0.1-0.1,0.4-0.2,0.7-0.2c0.3,0,0.5,0,0.7,0.2L79.6,14.3z"/>
		</g>
	</g>
</g>
</svg>
