<?xml version="1.0" encoding="utf-8"?>
<!-- Generator: Adobe Illustrator 22.0.0, SVG Export Plug-In . SVG Version: 6.00 Build 0)  -->
<svg version="1.1" id="Layer_1" xmlns="http://www.w3.org/2000/svg" xmlns:xlink="http://www.w3.org/1999/xlink" x="0px" y="0px"
	 viewBox="0 0 82.3 17" style="enable-background:new 0 0 82.3 17;" xml:space="preserve">
<style type="text/css">
	.st0{fill:#F6F6F6;}
</style>
<g>
	<g>
		<g>
			<path class="st0" d="M2,0.1L0,14.7h3.5l1.3-9.2l2.8,9.2h3.4l2.8-9.2l1.3,9.2h3.7L16.8,0h-4.5L9.5,9.9L6.4,0C6.4,0,2,0.1,2,0.1z"
				/>
			<path class="st0" d="M20.3,0.1l0.5,3.3h6.7c0,0,1.4,0,2.1,1.1c0.2,0.3,0.6,2.1-0.7,2.8c-0.7,0.4-1.1,0.3-1.1,0.3l-2.7,0.1l-0.3-2
				l-3.7,0l1.3,9.1h3.7l-0.6-4h2.4c0,0,1.8,0,3.1-0.8c1.3-0.8,2.7-2,2.5-4.9c-0.1-2.5-1.8-4.7-5.4-5C21.6,0,20.3,0.1,20.3,0.1z"/>
		</g>
		<g>
			<path class="st0" d="M38,5.4v9.3h-1V5.4H38z"/>
			<path class="st0" d="M44.2,13.6c-0.5,0.7-1.2,1-2.1,1c-0.9,0-1.6-0.3-2.1-1c-0.5-0.7-0.7-1.5-0.7-2.5c0-1,0.2-1.9,0.7-2.5
				c0.5-0.7,1.2-1,2.1-1c0.9,0,1.6,0.3,2.1,1C44.7,9.2,45,10,45,11.1C45,12.1,44.7,13,44.2,13.6z M43.5,9.1
				c-0.3-0.5-0.8-0.7-1.4-0.7c-0.6,0-1,0.2-1.4,0.7c-0.3,0.5-0.5,1.1-0.5,2c0,0.9,0.2,1.5,0.5,2c0.3,0.5,0.8,0.7,1.4,0.7
				c0.6,0,1-0.2,1.4-0.7c0.3-0.5,0.5-1.1,0.5-2C44,10.2,43.8,9.5,43.5,9.1z"/>
			<path class="st0" d="M52.5,8.3c-0.2,0-0.4,0-0.6,0c-0.2,0-0.4,0.1-0.5,0.1c0.1,0.1,0.2,0.3,0.3,0.6c0.1,0.3,0.1,0.5,0.1,0.8
				c0,0.3-0.1,0.6-0.2,0.9c-0.1,0.3-0.3,0.5-0.5,0.8c-0.2,0.2-0.5,0.4-0.8,0.5c-0.3,0.1-0.6,0.2-1,0.2c-0.2,0-0.5,0-0.6,0
				c-0.2,0-0.4-0.1-0.6-0.1c-0.4,0.1-0.5,0.3-0.5,0.6c0,0.3,0.2,0.5,0.6,0.5c1.6,0,2.7,0.2,3.4,0.5c0.3,0.1,0.6,0.3,0.7,0.6
				c0.1,0.2,0.2,0.5,0.2,0.9c0,0.5-0.3,1-0.8,1.3c-0.5,0.3-1.3,0.5-2.3,0.5c-1,0-1.7-0.1-2.2-0.4c-0.5-0.3-0.8-0.7-0.8-1.3
				c0-0.3,0.1-0.6,0.3-0.8c0.2-0.2,0.5-0.4,0.9-0.6c-0.3-0.1-0.5-0.2-0.6-0.4c-0.2-0.2-0.2-0.4-0.2-0.6c0-0.3,0.1-0.5,0.2-0.6
				c0.1-0.2,0.4-0.3,0.7-0.5c-0.3-0.2-0.6-0.5-0.7-0.8c-0.2-0.3-0.2-0.7-0.2-1.1c0-0.7,0.2-1.3,0.7-1.7c0.5-0.4,1.1-0.7,1.9-0.7
				c0.7,0,1.3,0.2,1.7,0.5c0.2-0.2,0.5-0.3,0.7-0.4c0.3-0.1,0.5-0.2,0.8-0.2V8.3z M51,14.4c-0.4-0.2-1-0.3-1.8-0.3
				c-0.4,0-0.7,0-0.9,0.1c-0.3,0.1-0.5,0.2-0.6,0.3c-0.1,0.1-0.3,0.2-0.3,0.4c-0.1,0.1-0.1,0.3-0.1,0.4c0,0.1,0,0.3,0.1,0.4
				c0.1,0.1,0.2,0.2,0.3,0.3c0.2,0.1,0.4,0.1,0.7,0.2c0.3,0,0.7,0.1,1.1,0.1c0.6,0,1.1-0.1,1.5-0.3c0.4-0.2,0.6-0.4,0.6-0.7
				C51.6,14.9,51.4,14.6,51,14.4z M50.5,8.7c-0.3-0.3-0.7-0.4-1.3-0.4c-0.5,0-0.9,0.1-1.2,0.4c-0.3,0.3-0.4,0.7-0.4,1.1
				c0,0.5,0.2,0.8,0.5,1.1c0.3,0.3,0.8,0.4,1.3,0.4c0.5,0,0.9-0.1,1.2-0.4c0.3-0.3,0.4-0.7,0.4-1.1C51,9.4,50.8,9,50.5,8.7z"/>
			<path class="st0" d="M54.8,6.4v1h-1v-1H54.8z M53.9,8.3h1v6.4h-1V8.3z"/>
			<path class="st0" d="M68.7,6.4v1h-1v-1H68.7z M67.8,8.3h1v6.4h-1V8.3z"/>
			<path class="st0" d="M56.9,12.8c0.2,0.3,0.5,0.6,0.8,0.8c0.3,0.2,0.7,0.3,1.1,0.3c0.5,0,0.9-0.1,1.1-0.3c0.3-0.2,0.4-0.5,0.4-0.8
				c0-0.4-0.2-0.6-0.5-0.8c-0.1-0.1-0.3-0.2-0.5-0.2c-0.2-0.1-0.4-0.1-0.7-0.2c-0.4-0.1-0.7-0.2-0.9-0.3c-0.2-0.1-0.5-0.2-0.7-0.4
				c-0.2-0.1-0.4-0.3-0.5-0.6c-0.1-0.2-0.2-0.5-0.2-0.8c0-0.6,0.2-1,0.6-1.4c0.4-0.3,1-0.5,1.6-0.5c0.5,0,0.9,0.1,1.4,0.4
				c0.4,0.2,0.8,0.5,1,0.9l-0.7,0.6c-0.3-0.3-0.5-0.6-0.8-0.7c-0.3-0.2-0.6-0.2-1-0.2c-0.4,0-0.7,0.1-0.9,0.3
				c-0.2,0.2-0.3,0.4-0.3,0.7c0,0.3,0.1,0.5,0.4,0.7c0.3,0.2,0.7,0.3,1.2,0.5c0.4,0.1,0.7,0.2,0.9,0.3c0.2,0.1,0.5,0.2,0.7,0.4
				c0.2,0.2,0.4,0.4,0.5,0.6c0.1,0.2,0.2,0.5,0.2,0.9c0,0.6-0.2,1.1-0.7,1.5c-0.5,0.4-1,0.5-1.7,0.5c-0.5,0-1.1-0.1-1.6-0.3
				c-0.5-0.2-0.9-0.6-1.2-1L56.9,12.8z"/>
			<path class="st0" d="M77.8,12.8c0.2,0.3,0.5,0.6,0.8,0.8c0.3,0.2,0.7,0.3,1.1,0.3c0.5,0,0.9-0.1,1.1-0.3c0.3-0.2,0.4-0.5,0.4-0.8
				c0-0.4-0.2-0.6-0.5-0.8c-0.1-0.1-0.3-0.2-0.5-0.2c-0.2-0.1-0.4-0.1-0.7-0.2c-0.4-0.1-0.7-0.2-0.9-0.3c-0.2-0.1-0.5-0.2-0.7-0.4
				c-0.2-0.1-0.4-0.3-0.5-0.6c-0.1-0.2-0.2-0.5-0.2-0.8c0-0.6,0.2-1,0.6-1.4c0.4-0.3,1-0.5,1.6-0.5c0.5,0,0.9,0.1,1.4,0.4
				c0.4,0.2,0.8,0.5,1,0.9l-0.7,0.6C81,9,80.7,8.7,80.5,8.6c-0.3-0.2-0.6-0.2-1-0.2c-0.4,0-0.7,0.1-0.9,0.3
				c-0.2,0.2-0.3,0.4-0.3,0.7c0,0.3,0.1,0.5,0.4,0.7c0.3,0.2,0.7,0.3,1.2,0.5c0.4,0.1,0.7,0.2,0.9,0.3c0.2,0.1,0.5,0.2,0.7,0.4
				c0.2,0.2,0.4,0.4,0.5,0.6c0.1,0.2,0.2,0.5,0.2,0.9c0,0.6-0.2,1.1-0.7,1.5c-0.5,0.4-1,0.5-1.7,0.5c-0.5,0-1.1-0.1-1.6-0.3
				c-0.5-0.2-0.9-0.6-1.2-1L77.8,12.8z"/>
			<path class="st0" d="M63.9,7.9V5.7h1v2.2h1.6v0.8h-1.6v4.8c0,0.3,0.3,0.5,0.8,0.5c0.3,0,0.6,0,0.8-0.1v0.8
				c-0.2,0.1-0.6,0.1-1.1,0.1c-0.5,0-0.9-0.1-1.1-0.2c-0.2-0.2-0.3-0.4-0.3-0.9V8.7h-1.1V7.9H63.9z"/>
			<path class="st0" d="M74.6,9.8c-0.1-0.4-0.3-0.8-0.6-1c-0.3-0.2-0.6-0.4-1-0.4c-0.6,0-1.1,0.2-1.4,0.7c-0.3,0.5-0.5,1.1-0.5,2
				c0,0.9,0.2,1.5,0.5,2c0.3,0.5,0.8,0.7,1.4,0.7c0.5,0,0.8-0.1,1.1-0.3c0.3-0.2,0.5-0.5,0.8-1l0.8,0.3c-0.4,0.6-0.7,1.1-1.1,1.3
				c-0.4,0.3-0.9,0.4-1.5,0.4c-0.9,0-1.6-0.3-2.1-1c-0.5-0.6-0.8-1.5-0.8-2.6c0-1.1,0.3-2,0.8-2.6c0.5-0.6,1.2-1,2.1-1
				c0.7,0,1.2,0.2,1.6,0.5c0.4,0.3,0.7,0.8,0.9,1.4L74.6,9.8z"/>
		</g>
	</g>
</g>
</svg>
