<?xml version="1.0" encoding="utf-8"?>
<!-- Generator: Adobe Illustrator 22.0.0, SVG Export Plug-In . SVG Version: 6.00 Build 0)  -->
<svg version="1.1" id="Layer_1" xmlns="http://www.w3.org/2000/svg" xmlns:xlink="http://www.w3.org/1999/xlink" x="0px" y="0px"
	 viewBox="0 0 142 102" style="enable-background:new 0 0 142 102;" xml:space="preserve">
<style type="text/css">
	.st0{fill:#317797;}
	.st1{clip-path:url(#SVGID_2_);}
	.st2{opacity:0.79;}
	.st3{opacity:0.19;clip-path:url(#SVGID_4_);}
	.st4{fill:#FFFFFF;}
	.st5{opacity:0.34;fill:#FFFFFF;enable-background:new    ;}
	.st6{opacity:0.21;fill:#FFFFFF;enable-background:new    ;}
	.st7{opacity:0.23;fill:#FFFFFF;enable-background:new    ;}
	.st8{opacity:0.33;fill:#FFFFFF;enable-background:new    ;}
	.st9{opacity:0.37;fill:#FFFFFF;enable-background:new    ;}
	.st10{opacity:0.24;fill:#FFFFFF;enable-background:new    ;}
	.st11{opacity:0.43;fill:#FFFFFF;enable-background:new    ;}
	.st12{opacity:0.63;fill:#FFFFFF;enable-background:new    ;}
	.st13{opacity:0.41;fill:#FFFFFF;enable-background:new    ;}
	.st14{opacity:0.32;fill:#FFFFFF;enable-background:new    ;}
	.st15{opacity:0.39;fill:#FFFFFF;enable-background:new    ;}
	.st16{opacity:0.17;fill:#FFFFFF;enable-background:new    ;}
	.st17{opacity:0.3;fill:#FFFFFF;enable-background:new    ;}
	.st18{opacity:0.18;fill:#FFFFFF;enable-background:new    ;}
	.st19{opacity:0.26;clip-path:url(#SVGID_6_);}
	.st20{fill:none;stroke:#FFFFFF;stroke-width:0.2553;stroke-miterlimit:10;}
	.st21{clip-path:url(#SVGID_8_);}
</style>
<g>
	<rect x="0.2" class="st0" width="141.8" height="102"/>
	<g>
		<g>
			<defs>
				<rect id="SVGID_1_" x="0.6" width="141.4" height="102"/>
			</defs>
			<clipPath id="SVGID_2_">
				<use xlink:href="#SVGID_1_"  style="overflow:visible;"/>
			</clipPath>
			<g class="st1">
				<g>
					<g class="st2">
						<g id="XMLID_165_">
							<defs>
								<rect id="SVGID_3_" x="-92" y="-20.8" width="278.7" height="197.1"/>
							</defs>
							<clipPath id="SVGID_4_">
								<use xlink:href="#SVGID_3_"  style="overflow:visible;"/>
							</clipPath>
							<g id="XMLID_167_" class="st3">
								<polygon id="XMLID_209_" class="st4" points="158.6,177.3 151.6,165.1 158.6,153 172.6,153 179.6,165.1 172.6,177.3 
																	"/>
								<polygon id="XMLID_208_" class="st5" points="172.6,153 165.6,140.9 172.6,128.7 186.6,128.7 193.6,140.9 186.6,153 
																	"/>
								<polygon id="XMLID_207_" class="st4" points="158.6,128.7 151.6,116.6 158.6,104.4 172.6,104.4 179.6,116.6 172.6,128.7 
																	"/>
								<polygon id="XMLID_206_" class="st4" points="172.7,104.4 165.7,92.3 172.7,80.2 186.7,80.2 193.7,92.3 186.7,104.4 
																	"/>
								<polygon id="XMLID_205_" class="st6" points="158.6,80.2 151.6,68 158.6,55.9 172.6,55.9 179.6,68 172.6,80.2 								"/>
								<polygon id="XMLID_204_" class="st7" points="158.6,55.9 151.6,43.7 158.6,31.6 172.6,31.6 179.6,43.7 172.6,55.9 								
									"/>
								<polygon id="XMLID_203_" class="st4" points="158.6,31.6 151.6,19.4 158.6,7.3 172.6,7.3 179.6,19.4 172.6,31.6 								"/>
								<polygon id="XMLID_202_" class="st8" points="172.7,55.9 165.7,43.7 172.7,31.6 186.7,31.6 193.7,43.7 186.7,55.9 								
									"/>
								<polygon id="XMLID_201_" class="st4" points="158.6,7.3 151.6,-4.8 158.6,-17 172.6,-17 179.6,-4.8 172.6,7.3 								"/>
								<polygon id="XMLID_200_" class="st9" points="137.6,213.7 130.5,201.6 137.6,189.4 151.6,189.4 158.6,201.6 151.6,213.7 
																	"/>
								<polygon id="XMLID_199_" class="st4" points="137.6,140.9 130.5,128.7 137.6,116.6 151.6,116.6 158.6,128.7 151.6,140.9 
																	"/>
								<polygon id="XMLID_198_" class="st10" points="137.6,92.3 130.5,80.2 137.6,68 151.6,68 158.6,80.2 151.6,92.3 								"/>
								<polygon id="XMLID_197_" class="st4" points="137.6,68 130.5,55.9 137.6,43.7 151.6,43.7 158.6,55.9 151.6,68 								"/>
								<polygon id="XMLID_196_" class="st7" points="137.6,43.7 130.5,31.6 137.6,19.4 151.6,19.4 158.6,31.6 151.6,43.7 								
									"/>
								<polygon id="XMLID_195_" class="st6" points="137.6,19.4 130.5,7.3 137.6,-4.8 151.6,-4.8 158.6,7.3 151.6,19.4 								"/>
								<polygon id="XMLID_194_" class="st4" points="116.5,201.6 109.5,189.4 116.5,177.3 130.5,177.3 137.5,189.4 130.5,201.6 
																	"/>
								<polygon id="XMLID_193_" class="st11" points="116.5,153 109.5,140.9 116.5,128.7 130.5,128.7 137.5,140.9 130.5,153 
																	"/>
								<polygon id="XMLID_192_" class="st12" points="116.5,104.4 109.5,92.3 116.5,80.2 130.5,80.2 137.5,92.3 130.5,104.4 
																	"/>
								<polygon id="XMLID_191_" class="st4" points="116.5,80.2 109.5,68 116.5,55.9 130.5,55.9 137.5,68 130.5,80.2 								"/>
								<polygon id="XMLID_190_" class="st10" points="116.5,55.9 109.5,43.7 116.5,31.6 130.5,31.6 137.5,43.7 130.5,55.9 								
									"/>
								<polygon id="XMLID_189_" class="st13" points="116.5,31.6 109.5,19.4 116.5,7.3 130.5,7.3 137.5,19.4 130.5,31.6 								
									"/>
								<polygon id="XMLID_188_" class="st7" points="116.5,7.3 109.5,-4.8 116.5,-17 130.5,-17 137.5,-4.8 130.5,7.3 								"/>
								<polygon id="XMLID_187_" class="st4" points="95.4,189.4 88.4,177.3 95.4,165.1 109.5,165.1 116.5,177.3 109.5,189.4 
																	"/>
								<polygon id="XMLID_186_" class="st9" points="95.4,165.1 88.4,153 95.4,140.9 109.5,140.9 116.5,153 109.5,165.1 								
									"/>
								<polygon id="XMLID_185_" class="st4" points="95.4,140.9 88.4,128.7 95.4,116.6 109.5,116.6 116.5,128.7 109.5,140.9 
																	"/>
								<polygon id="XMLID_184_" class="st4" points="95.4,68 88.4,55.9 95.4,43.7 109.5,43.7 116.5,55.9 109.5,68 								"/>
								<polygon id="XMLID_183_" class="st7" points="95.4,43.7 88.4,31.6 95.4,19.4 109.5,19.4 116.5,31.6 109.5,43.7 								"/>
								<polygon id="XMLID_182_" class="st9" points="74.4,201.6 67.4,189.4 74.4,177.3 88.4,177.3 95.4,189.4 88.4,201.6 								
									"/>
								<polygon id="XMLID_181_" class="st10" points="74.4,177.3 67.4,165.1 74.4,153 88.4,153 95.4,165.1 88.4,177.3 								"/>
								<polygon id="XMLID_180_" class="st4" points="74.4,104.4 67.4,92.3 74.4,80.2 88.4,80.2 95.4,92.3 88.4,104.4 								"/>
								<polygon id="XMLID_179_" class="st4" points="74.4,7.3 67.4,-4.8 74.4,-17 88.4,-17 95.4,-4.8 88.4,7.3 								"/>
								<polygon id="XMLID_178_" class="st14" points="102.5,7.3 95.5,-4.8 102.5,-17 116.5,-17 123.5,-4.8 116.5,7.3 								"/>
								<polygon id="XMLID_177_" class="st15" points="53.4,140.9 46.4,128.7 53.4,116.6 67.4,116.6 74.4,128.7 67.4,140.9 								
									"/>
								<polygon id="XMLID_176_" class="st9" points="53.4,116.6 46.4,104.4 53.4,92.3 67.4,92.3 74.4,104.4 67.4,116.6 								"/>
								<polygon id="XMLID_175_" class="st16" points="53.4,68 46.4,55.9 53.4,43.7 67.4,43.7 74.4,55.9 67.4,68 								"/>
								<polygon id="XMLID_174_" class="st4" points="53.4,19.4 46.4,7.3 53.4,-4.8 67.4,-4.8 74.4,7.3 67.4,19.4 								"/>
								<polygon id="XMLID_173_" class="st4" points="32.3,201.6 25.3,189.4 32.3,177.3 46.3,177.3 53.3,189.4 46.3,201.6 								
									"/>
								<polygon id="XMLID_172_" class="st4" points="32.3,7.3 25.3,-4.8 32.3,-17 46.3,-17 53.3,-4.8 46.3,7.3 								"/>
								<polygon id="XMLID_171_" class="st16" points="11.2,213.7 4.2,201.6 11.2,189.4 25.3,189.4 32.3,201.6 25.3,213.7 								
									"/>
								<polygon id="XMLID_170_" class="st9" points="11.2,189.4 4.2,177.3 11.2,165.1 25.3,165.1 32.3,177.3 25.3,189.4 								
									"/>
								<polygon id="XMLID_169_" class="st17" points="11.2,43.7 4.2,31.6 11.2,19.4 25.3,19.4 32.3,31.6 25.3,43.7 								"/>
								<polygon id="XMLID_168_" class="st18" points="11.2,19.4 4.2,7.3 11.2,-4.8 25.3,-4.8 32.3,7.3 25.3,19.4 								"/>
							</g>
						</g>
						<g>
							<g id="XMLID_96_">
								<defs>
									<rect id="SVGID_5_" x="-92" y="-20.8" width="278.7" height="197.1"/>
								</defs>
								<clipPath id="SVGID_6_">
									<use xlink:href="#SVGID_5_"  style="overflow:visible;"/>
								</clipPath>
								<g id="XMLID_98_" class="st19">
									<g id="XMLID_123_">
										<polygon id="XMLID_164_" class="st20" points="220.6,1.2 213.6,13.4 220.6,25.5 234.6,25.5 241.6,13.4 234.6,1.2 
																					"/>
										<polygon id="XMLID_163_" class="st20" points="220.6,49.8 213.6,61.9 220.6,74.1 234.6,74.1 241.6,61.9 234.6,49.8 
																					"/>
										<polygon id="XMLID_162_" class="st20" points="220.6,98.4 213.6,110.5 220.6,122.6 234.6,122.6 241.6,110.5 234.6,98.4 
																					"/>
										<polygon id="XMLID_161_" class="st20" points="220.6,122.6 213.6,134.8 220.6,146.9 234.6,146.9 241.6,134.8 234.6,122.6 
																					"/>
										<polygon id="XMLID_160_" class="st20" points="220.6,146.9 213.6,159.1 220.6,171.2 234.6,171.2 241.6,159.1 234.6,146.9 
																					"/>
										<polygon id="XMLID_159_" class="st20" points="220.6,171.2 213.6,183.3 220.6,195.5 234.6,195.5 241.6,183.3 234.6,171.2 
																					"/>
										<polygon id="XMLID_158_" class="st20" points="199.6,-35.2 192.6,-23 199.6,-10.9 213.6,-10.9 220.6,-23 213.6,-35.2 
																					"/>
										<polygon id="XMLID_157_" class="st20" points="199.6,37.7 192.6,49.8 199.6,61.9 213.6,61.9 220.6,49.8 213.6,37.7 
																					"/>
										<polygon id="XMLID_156_" class="st20" points="199.6,86.2 192.6,98.4 199.6,110.5 213.6,110.5 220.6,98.4 213.6,86.2 
																					"/>
										<polygon id="XMLID_155_" class="st20" points="199.6,110.5 192.6,122.6 199.6,134.8 213.6,134.8 220.6,122.6 213.6,110.5 
																					"/>
										<polygon id="XMLID_154_" class="st20" points="199.6,134.8 192.6,146.9 199.6,159.1 213.6,159.1 220.6,146.9 213.6,134.8 
																					"/>
										<polygon id="XMLID_153_" class="st20" points="199.6,159.1 192.6,171.2 199.6,183.3 213.6,183.3 220.6,171.2 213.6,159.1 
																					"/>
										<polygon id="XMLID_152_" class="st20" points="178.5,-23 171.5,-10.9 178.5,1.2 192.5,1.2 199.5,-10.9 192.5,-23 
																					"/>
										<polygon id="XMLID_151_" class="st20" points="178.5,25.5 171.5,37.7 178.5,49.8 192.5,49.8 199.5,37.7 192.5,25.5 
																					"/>
										<polygon id="XMLID_150_" class="st20" points="178.5,49.8 171.5,61.9 178.5,74.1 192.5,74.1 199.5,61.9 192.5,49.8 
																					"/>
										<polygon id="XMLID_149_" class="st20" points="178.5,74.1 171.5,86.2 178.5,98.4 192.5,98.4 199.5,86.2 192.5,74.1 
																					"/>
										<polygon id="XMLID_148_" class="st20" points="178.5,98.4 171.5,110.5 178.5,122.6 192.5,122.6 199.5,110.5 192.5,98.4 
																					"/>
										<polygon id="XMLID_147_" class="st20" points="178.5,122.6 171.5,134.8 178.5,146.9 192.5,146.9 199.5,134.8 192.5,122.6 
																					"/>
										<polygon id="XMLID_146_" class="st20" points="178.5,146.9 171.5,159.1 178.5,171.2 192.5,171.2 199.5,159.1 192.5,146.9 
																					"/>
										<polygon id="XMLID_145_" class="st20" points="178.5,171.2 171.5,183.3 178.5,195.5 192.5,195.5 199.5,183.3 192.5,171.2 
																					"/>
										<polygon id="XMLID_144_" class="st20" points="157.5,-10.9 150.5,1.2 157.5,13.4 171.5,13.4 178.5,1.2 171.5,-10.9 
																					"/>
										<polygon id="XMLID_143_" class="st20" points="157.5,13.4 150.5,25.5 157.5,37.7 171.5,37.7 178.5,25.5 171.5,13.4 
																					"/>
										<polygon id="XMLID_142_" class="st20" points="157.5,37.7 150.5,49.8 157.5,61.9 171.5,61.9 178.5,49.8 171.5,37.7 
																					"/>
										<polygon id="XMLID_141_" class="st20" points="157.5,110.5 150.5,122.6 157.5,134.8 171.5,134.8 178.5,122.6 171.5,110.5 
																					"/>
										<polygon id="XMLID_140_" class="st20" points="157.5,134.8 150.5,146.9 157.5,159.1 171.5,159.1 178.5,146.9 171.5,134.8 
																					"/>
										<polygon id="XMLID_139_" class="st20" points="136.4,-23 129.4,-10.9 136.4,1.2 150.4,1.2 157.4,-10.9 150.4,-23 
																					"/>
										<polygon id="XMLID_138_" class="st20" points="136.4,1.2 129.4,13.4 136.4,25.5 150.4,25.5 157.4,13.4 150.4,1.2 
																					"/>
										<polygon id="XMLID_137_" class="st20" points="136.4,74.1 129.4,86.2 136.4,98.4 150.4,98.4 157.4,86.2 150.4,74.1 
																					"/>
										<polygon id="XMLID_136_" class="st20" points="136.4,98.4 129.4,110.5 136.4,122.6 150.4,122.6 157.4,110.5 150.4,98.4 
																					"/>
										<polygon id="XMLID_135_" class="st20" points="136.4,122.6 129.4,134.8 136.4,146.9 150.4,146.9 157.4,134.8 150.4,122.6 
																					"/>
										<polygon id="XMLID_134_" class="st20" points="136.4,171.2 129.4,183.3 136.4,195.5 150.4,195.5 157.4,183.3 150.4,171.2 
																					"/>
										<polygon id="XMLID_133_" class="st20" points="115.4,37.7 108.4,49.8 115.4,61.9 129.4,61.9 136.4,49.8 129.4,37.7 
																					"/>
										<polygon id="XMLID_132_" class="st20" points="115.4,61.9 108.4,74.1 115.4,86.2 129.4,86.2 136.4,74.1 129.4,61.9 
																					"/>
										<polygon id="XMLID_131_" class="st20" points="115.4,110.5 108.4,122.6 115.4,134.8 129.4,134.8 136.4,122.6 129.4,110.5 
																					"/>
										<polygon id="XMLID_130_" class="st20" points="115.4,159.1 108.4,171.2 115.4,183.3 129.4,183.3 136.4,171.2 129.4,159.1 
																					"/>
										<polygon id="XMLID_129_" class="st20" points="94.3,-23 87.3,-10.9 94.3,1.2 108.3,1.2 115.3,-10.9 108.3,-23 										
											"/>
										<polygon id="XMLID_128_" class="st20" points="94.3,171.2 87.3,183.3 94.3,195.5 108.3,195.5 115.3,183.3 108.3,171.2 
																					"/>
										<polygon id="XMLID_127_" class="st20" points="73.3,-35.2 66.3,-23 73.3,-10.9 87.3,-10.9 94.3,-23 87.3,-35.2 										
											"/>
										<polygon id="XMLID_126_" class="st20" points="73.3,-10.9 66.3,1.2 73.3,13.4 87.3,13.4 94.3,1.2 87.3,-10.9 										
											"/>
										<polygon id="XMLID_125_" class="st20" points="73.3,134.8 66.3,146.9 73.3,159.1 87.3,159.1 94.3,146.9 87.3,134.8 
																					"/>
										<polygon id="XMLID_124_" class="st20" points="73.3,159.1 66.3,171.2 73.3,183.3 87.3,183.3 94.3,171.2 87.3,159.1 
																					"/>
									</g>
									<g id="XMLID_99_">
										<circle id="XMLID_122_" class="st4" cx="66.3" cy="1.2" r="1.2"/>
										<path id="XMLID_121_" class="st4" d="M129.4-9.7c0.6,0,1.2-0.5,1.2-1.2c0-0.6-0.5-1.2-1.2-1.2c-0.6,0-1.2,0.5-1.2,1.2
											C128.2-10.3,128.8-9.7,129.4-9.7z"/>
										<path id="XMLID_120_" class="st4" d="M108.4,75c0.5,0,0.8-0.4,0.8-0.8c0-0.5-0.4-0.8-0.8-0.8c-0.5,0-0.8,0.4-0.8,0.8
											C107.6,74.7,107.9,75,108.4,75z"/>
										<path id="XMLID_119_" class="st4" d="M115.4,135.6c0.5,0,0.8-0.4,0.8-0.8s-0.4-0.8-0.8-0.8s-0.8,0.4-0.8,0.8
											S114.9,135.6,115.4,135.6z"/>
										<path id="XMLID_118_" class="st4" d="M129.4,38.5c0.5,0,0.8-0.4,0.8-0.8c0-0.5-0.4-0.8-0.8-0.8s-0.8,0.4-0.8,0.8
											C128.6,38.1,129,38.5,129.4,38.5z"/>
										<path id="XMLID_117_" class="st4" d="M157.4,135.6c0.5,0,0.8-0.4,0.8-0.8s-0.4-0.8-0.8-0.8c-0.5,0-0.8,0.4-0.8,0.8
											S157,135.6,157.4,135.6z"/>
										<path id="XMLID_116_" class="st4" d="M171.6,38.5c0.5,0,0.8-0.4,0.8-0.8c0-0.5-0.4-0.8-0.8-0.8s-0.8,0.4-0.8,0.8
											S171.1,38.5,171.6,38.5z"/>
										<circle id="XMLID_115_" class="st4" cx="213.6" cy="61.9" r="1"/>
										<circle id="XMLID_114_" class="st4" cx="213.6" cy="13.4" r="1"/>
										<path id="XMLID_113_" class="st4" d="M199.4,184.3c0.5,0,1-0.4,1-1c0-0.5-0.4-1-1-1c-0.5,0-1,0.4-1,1
											C198.4,183.9,198.8,184.3,199.4,184.3z"/>
										<circle id="XMLID_112_" class="st4" cx="157.3" cy="86.2" r="1"/>
										<path id="XMLID_111_" class="st4" d="M94.3,147.9c0.5,0,1-0.4,1-1c0-0.5-0.4-1-1-1c-0.5,0-1,0.4-1,1
											S93.8,147.9,94.3,147.9z"/>
										<circle id="XMLID_110_" class="st4" cx="66.3" cy="171.2" r="1"/>
										<path id="XMLID_109_" class="st4" d="M178.5,75.1c0.5,0,1-0.4,1-1c0-0.5-0.4-1-1-1c-0.5,0-1,0.4-1,1
											C177.5,74.6,178,75.1,178.5,75.1z"/>
										<circle id="XMLID_108_" class="st4" cx="192.5" cy="25.6" r="1"/>
										<path id="XMLID_107_" class="st4" d="M171.5,111.5c0.5,0,1-0.4,1-1c0-0.5-0.4-1-1-1c-0.5,0-1,0.4-1,1
											C170.5,111,170.9,111.5,171.5,111.5z"/>
										<path id="XMLID_106_" class="st4" d="M220.6,147.9c0.5,0,1-0.4,1-1c0-0.5-0.4-1-1-1c-0.5,0-1,0.4-1,1
											S220.1,147.9,220.6,147.9z"/>
										<path id="XMLID_105_" class="st4" d="M136.4,2.2c0.5,0,1-0.4,1-1c0-0.5-0.4-1-1-1c-0.5,0-1,0.4-1,1S135.9,2.2,136.4,2.2z"
											/>
										<circle id="XMLID_104_" class="st4" cx="129.6" cy="13.4" r="1"/>
										<path id="XMLID_103_" class="st4" d="M108.4,2.2c0.5,0,1-0.4,1-1c0-0.5-0.4-1-1-1c-0.5,0-1,0.4-1,1S107.8,2.2,108.4,2.2z"
											/>
										<path id="XMLID_102_" class="st4" d="M192.6,147.9c0.5,0,1-0.4,1-1c0-0.5-0.4-1-1-1c-0.5,0-1,0.4-1,1
											S192,147.9,192.6,147.9z"/>
										<circle id="XMLID_101_" class="st4" cx="150.5" cy="171.2" r="1"/>
										<circle id="XMLID_100_" class="st4" cx="115.3" cy="159.1" r="1"/>
									</g>
								</g>
							</g>
							<g>
								<g id="XMLID_27_">
									<defs>
										<rect id="SVGID_7_" x="-92" y="-20.8" width="278.7" height="197.1"/>
									</defs>
									<clipPath id="SVGID_8_">
										<use xlink:href="#SVGID_7_"  style="overflow:visible;"/>
									</clipPath>
									<g id="XMLID_29_" class="st21">
										<g id="XMLID_54_">
											<polygon id="XMLID_95_" class="st20" points="172.7,164.2 165.7,152 172.7,139.9 186.7,139.9 193.7,152 186.7,164.2 
																							"/>
											<polygon id="XMLID_94_" class="st20" points="172.7,115.6 165.7,103.5 172.7,91.3 186.7,91.3 193.7,103.5 186.7,115.6 
																							"/>
											<polygon id="XMLID_93_" class="st20" points="172.7,67 165.7,54.9 172.7,42.8 186.7,42.8 193.7,54.9 186.7,67 
																							"/>
											<polygon id="XMLID_92_" class="st20" points="172.7,42.8 165.7,30.6 172.7,18.5 186.7,18.5 193.7,30.6 186.7,42.8 
																							"/>
											<polygon id="XMLID_91_" class="st20" points="172.7,18.5 165.7,6.3 172.7,-5.8 186.7,-5.8 193.7,6.3 186.7,18.5 
																							"/>
											<polygon id="XMLID_90_" class="st20" points="172.7,-5.8 165.7,-17.9 172.7,-30.1 186.7,-30.1 193.7,-17.9 186.7,-5.8 
																							"/>
											<polygon id="XMLID_89_" class="st20" points="151.6,200.6 144.6,188.4 151.6,176.3 165.7,176.3 172.7,188.4 165.7,200.6 
																							"/>
											<polygon id="XMLID_88_" class="st20" points="151.6,127.7 144.6,115.6 151.6,103.5 165.7,103.5 172.7,115.6 165.7,127.7 
																							"/>
											<polygon id="XMLID_87_" class="st20" points="151.6,79.2 144.6,67 151.6,54.9 165.7,54.9 172.7,67 165.7,79.2 
																							"/>
											<polygon id="XMLID_86_" class="st20" points="151.6,54.9 144.6,42.8 151.6,30.6 165.7,30.6 172.7,42.8 165.7,54.9 
																							"/>
											<polygon id="XMLID_85_" class="st20" points="151.6,30.6 144.6,18.5 151.6,6.3 165.7,6.3 172.7,18.5 165.7,30.6 
																							"/>
											<polygon id="XMLID_84_" class="st20" points="151.6,6.3 144.6,-5.8 151.6,-17.9 165.7,-17.9 172.7,-5.8 165.7,6.3 
																							"/>
											<polygon id="XMLID_83_" class="st20" points="130.6,188.4 123.5,176.3 130.6,164.2 144.6,164.2 151.6,176.3 144.6,188.4 
																							"/>
											<polygon id="XMLID_82_" class="st20" points="130.6,139.9 123.5,127.7 130.6,115.6 144.6,115.6 151.6,127.7 144.6,139.9 
																							"/>
											<polygon id="XMLID_81_" class="st20" points="130.6,115.6 123.5,103.5 130.6,91.3 144.6,91.3 151.6,103.5 144.6,115.6 
																							"/>
											<polygon id="XMLID_80_" class="st20" points="130.6,91.3 123.5,79.2 130.6,67 144.6,67 151.6,79.2 144.6,91.3 
																							"/>
											<polygon id="XMLID_79_" class="st20" points="130.6,67 123.5,54.9 130.6,42.8 144.6,42.8 151.6,54.9 144.6,67 
																							"/>
											<polygon id="XMLID_78_" class="st20" points="130.6,42.8 123.5,30.6 130.6,18.5 144.6,18.5 151.6,30.6 144.6,42.8 
																							"/>
											<polygon id="XMLID_77_" class="st20" points="130.6,18.5 123.5,6.3 130.6,-5.8 144.6,-5.8 151.6,6.3 144.6,18.5 
																							"/>
											<polygon id="XMLID_76_" class="st20" points="130.6,-5.8 123.5,-17.9 130.6,-30.1 144.6,-30.1 151.6,-17.9 144.6,-5.8 
																							"/>
											<polygon id="XMLID_75_" class="st20" points="109.5,176.3 102.5,164.2 109.5,152 123.5,152 130.6,164.2 123.5,176.3 
																							"/>
											<polygon id="XMLID_74_" class="st20" points="109.5,152 102.5,139.9 109.5,127.7 123.5,127.7 130.6,139.9 123.5,152 
																							"/>
											<polygon id="XMLID_73_" class="st20" points="109.5,127.7 102.5,115.6 109.5,103.5 123.5,103.5 130.6,115.6 123.5,127.7 
																							"/>
											<polygon id="XMLID_72_" class="st20" points="109.5,54.9 102.5,42.8 109.5,30.6 123.5,30.6 130.6,42.8 123.5,54.9 
																							"/>
											<polygon id="XMLID_71_" class="st20" points="109.5,30.6 102.5,18.5 109.5,6.3 123.5,6.3 130.6,18.5 123.5,30.6 
																							"/>
											<polygon id="XMLID_70_" class="st20" points="88.5,188.4 81.5,176.3 88.5,164.2 102.5,164.2 109.5,176.3 102.5,188.4 
																							"/>
											<polygon id="XMLID_69_" class="st20" points="88.5,164.2 81.5,152 88.5,139.9 102.5,139.9 109.5,152 102.5,164.2 
																							"/>
											<polygon id="XMLID_68_" class="st20" points="88.5,91.3 81.5,79.2 88.5,67 102.5,67 109.5,79.2 102.5,91.3 											
												"/>
											<polygon id="XMLID_67_" class="st20" points="88.5,67 81.5,54.9 88.5,42.8 102.5,42.8 109.5,54.9 102.5,67 											
												"/>
											<polygon id="XMLID_66_" class="st20" points="88.5,42.8 81.5,30.6 88.5,18.5 102.5,18.5 109.5,30.6 102.5,42.8 
																							"/>
											<polygon id="XMLID_65_" class="st20" points="88.5,-5.8 81.5,-17.9 88.5,-30.1 102.5,-30.1 109.5,-17.9 102.5,-5.8 
																							"/>
											<polygon id="XMLID_64_" class="st20" points="67.4,127.7 60.4,115.6 67.4,103.5 81.5,103.5 88.5,115.6 81.5,127.7 
																							"/>
											<polygon id="XMLID_63_" class="st20" points="67.4,103.5 60.4,91.3 67.4,79.2 81.5,79.2 88.5,91.3 81.5,103.5 
																							"/>
											<polygon id="XMLID_62_" class="st20" points="67.4,54.9 60.4,42.8 67.4,30.6 81.5,30.6 88.5,42.8 81.5,54.9 											
												"/>
											<polygon id="XMLID_61_" class="st20" points="67.4,6.3 60.4,-5.8 67.4,-17.9 81.5,-17.9 88.5,-5.8 81.5,6.3 											
												"/>
											<polygon id="XMLID_60_" class="st20" points="46.4,188.4 39.4,176.3 46.4,164.2 60.4,164.2 67.4,176.3 60.4,188.4 
																							"/>
											<polygon id="XMLID_59_" class="st20" points="46.4,-5.8 39.4,-17.9 46.4,-30.1 60.4,-30.1 67.4,-17.9 60.4,-5.8 
																							"/>
											<polygon id="XMLID_58_" class="st20" points="25.3,200.6 18.3,188.4 25.3,176.3 39.4,176.3 46.4,188.4 39.4,200.6 
																							"/>
											<polygon id="XMLID_57_" class="st20" points="25.3,176.3 18.3,164.2 25.3,152 39.4,152 46.4,164.2 39.4,176.3 
																							"/>
											<polygon id="XMLID_56_" class="st20" points="25.3,30.6 18.3,18.5 25.3,6.3 39.4,6.3 46.4,18.5 39.4,30.6 											"/>
											<polygon id="XMLID_55_" class="st20" points="25.3,6.3 18.3,-5.8 25.3,-17.9 39.4,-17.9 46.4,-5.8 39.4,6.3 											
												"/>
										</g>
										<g id="XMLID_30_">
											<circle id="XMLID_53_" class="st4" cx="18.3" cy="164.2" r="1.2"/>
											<path id="XMLID_52_" class="st4" d="M81.5,175.1c0.6,0,1.2,0.5,1.2,1.2s-0.5,1.2-1.2,1.2c-0.6,0-1.2-0.5-1.2-1.2
												S80.8,175.1,81.5,175.1z"/>
											<path id="XMLID_51_" class="st4" d="M60.4,90.4c0.5,0,0.8,0.4,0.8,0.8c0,0.5-0.4,0.8-0.8,0.8c-0.5,0-0.8-0.4-0.8-0.8
												C59.6,90.7,60,90.4,60.4,90.4z"/>
											<path id="XMLID_50_" class="st4" d="M67.4,29.8c0.5,0,0.8,0.4,0.8,0.8c0,0.5-0.4,0.8-0.8,0.8s-0.8-0.4-0.8-0.8
												C66.6,30.2,67,29.8,67.4,29.8z"/>
											<path id="XMLID_49_" class="st4" d="M81.5,126.9c0.5,0,0.8,0.4,0.8,0.8c0,0.5-0.4,0.8-0.8,0.8s-0.8-0.4-0.8-0.8
												C80.6,127.3,81,126.9,81.5,126.9z"/>
											<path id="XMLID_48_" class="st4" d="M109.5,29.8c0.5,0,0.8,0.4,0.8,0.8c0,0.5-0.4,0.8-0.8,0.8c-0.5,0-0.8-0.4-0.8-0.8
												C108.7,30.2,109,29.8,109.5,29.8z"/>
											<path id="XMLID_47_" class="st4" d="M123.6,126.9c0.5,0,0.8,0.4,0.8,0.8c0,0.5-0.4,0.8-0.8,0.8s-0.8-0.4-0.8-0.8
												C122.8,127.3,123.2,126.9,123.6,126.9z"/>
											<circle id="XMLID_46_" class="st4" cx="165.7" cy="103.5" r="1"/>
											<path id="XMLID_45_" class="st4" d="M165.7,151c0.5,0,1,0.4,1,1c0,0.5-0.4,1-1,1c-0.5,0-1-0.4-1-1
												C164.7,151.5,165.1,151,165.7,151z"/>
											<path id="XMLID_44_" class="st4" d="M151.4-18.9c0.5,0,1,0.4,1,1c0,0.5-0.4,1-1,1c-0.5,0-1-0.4-1-1
												C150.5-18.5,150.9-18.9,151.4-18.9z"/>
											<path id="XMLID_43_" class="st4" d="M109.4,78.2c0.5,0,1,0.4,1,1c0,0.5-0.4,1-1,1c-0.5,0-1-0.4-1-1
												S108.8,78.2,109.4,78.2z"/>
											<circle id="XMLID_42_" class="st4" cx="46.4" cy="18.5" r="1"/>
											<path id="XMLID_41_" class="st4" d="M18.3-6.8c0.5,0,1,0.4,1,1c0,0.5-0.4,1-1,1c-0.5,0-1-0.4-1-1
												C17.4-6.3,17.8-6.8,18.3-6.8z"/>
											<circle id="XMLID_40_" class="st4" cx="130.6" cy="91.3" r="1"/>
											<path id="XMLID_39_" class="st4" d="M144.5,138.8c0.5,0,1,0.4,1,1c0,0.5-0.4,1-1,1c-0.5,0-1-0.4-1-1
												C143.6,139.3,144,138.8,144.5,138.8z"/>
											<circle id="XMLID_38_" class="st4" cx="123.5" cy="54.9" r="1"/>
											<circle id="XMLID_37_" class="st4" cx="172.7" cy="18.5" r="1"/>
											<path id="XMLID_36_" class="st4" d="M88.5,163.2c0.5,0,1,0.4,1,1c0,0.5-0.4,1-1,1c-0.5,0-1-0.4-1-1
												C87.5,163.6,87.9,163.2,88.5,163.2z"/>
											<circle id="XMLID_35_" class="st4" cx="81.7" cy="152" r="1"/>
											<path id="XMLID_34_" class="st4" d="M60.4,163.2c0.5,0,1,0.4,1,1c0,0.5-0.4,1-1,1c-0.5,0-1-0.4-1-1
												C59.5,163.6,59.9,163.2,60.4,163.2z"/>
											<circle id="XMLID_33_" class="st4" cx="144.6" cy="18.5" r="1"/>
											<path id="XMLID_32_" class="st4" d="M102.5-6.8c0.5,0,1,0.4,1,1c0,0.5-0.4,1-1,1c-0.5,0-1-0.4-1-1
												C101.5-6.3,102-6.8,102.5-6.8z"/>
											<circle id="XMLID_31_" class="st4" cx="67.4" cy="6.3" r="1"/>
										</g>
									</g>
								</g>
							</g>
						</g>
					</g>
				</g>
			</g>
		</g>
	</g>
</g>
</svg>
