<?xml version="1.0" encoding="utf-8"?>
<!-- Generator: Adobe Illustrator 22.0.0, SVG Export Plug-In . SVG Version: 6.00 Build 0)  -->
<svg version="1.1" id="Layer_1" xmlns="http://www.w3.org/2000/svg" xmlns:xlink="http://www.w3.org/1999/xlink" x="0px" y="0px"
	 viewBox="0 0 94 54" style="enable-background:new 0 0 94 54;" xml:space="preserve">
<style type="text/css">
	.st0{fill:#FFFFFF;}
	.st1{fill:#FFC21C;}
</style>
<g>
	<g>
		<g>
			<g>
				<g>
					<g>
						<g>
							<path class="st0" d="M8.2,52.2v-5.5h0l-2.2,5.5H5.4l-2.2-5.5h0v5.5H2.6V46h0.9l2.2,5.3L7.8,46h0.9v6.2H8.2z"/>
						</g>
						<g>
							<path class="st0" d="M13.7,49.4c-0.2,0.1-0.4,0.2-0.7,0.3c-0.1,0-0.3,0-0.4,0c-0.1,0-0.2,0-0.4,0h-1.1v2.5h-0.6V46h1.6
								c0.2,0,0.3,0,0.4,0c0.1,0,0.3,0,0.4,0c0.3,0.1,0.5,0.2,0.7,0.3c0.5,0.3,0.7,0.8,0.7,1.5C14.4,48.5,14.1,49,13.7,49.4z
								 M13.1,46.8c-0.1-0.1-0.3-0.1-0.5-0.1l-0.3,0h-1.3v2.6h1.3l0.3,0c0.2,0,0.3-0.1,0.5-0.1c0.5-0.2,0.7-0.6,0.7-1.1
								C13.8,47.4,13.6,47,13.1,46.8z"/>
						</g>
						<g>
							<path class="st0" d="M18.5,52.2V46h0.6v5.6h2.4v0.6H18.5z"/>
						</g>
						<g>
							<path class="st0" d="M26.3,51.6c-0.5,0.5-1,0.7-1.6,0.7c-0.6,0-1.2-0.2-1.6-0.7c-0.5-0.5-0.7-1-0.7-1.7
								c0-0.7,0.2-1.2,0.7-1.7c0.4-0.5,1-0.7,1.6-0.7c0.6,0,1.2,0.2,1.6,0.7c0.5,0.5,0.7,1,0.7,1.7C27,50.6,26.8,51.1,26.3,51.6z
								 M26,48.6c-0.3-0.4-0.7-0.5-1.2-0.5c-0.5,0-0.9,0.2-1.2,0.6C23.2,49,23,49.4,23,50c0,0.5,0.2,0.9,0.5,1.3
								c0.3,0.4,0.7,0.5,1.2,0.5c0.5,0,0.9-0.2,1.2-0.6c0.3-0.4,0.5-0.8,0.5-1.3C26.5,49.4,26.3,49,26,48.6z"/>
						</g>
						<g>
							<path class="st0" d="M32.7,51.5c0,0.2,0,0.3,0,0.4c0,0.2,0,0.3-0.1,0.4c-0.1,0.3-0.2,0.6-0.3,0.8c-0.4,0.6-1,0.8-1.7,0.8
								c-0.5,0-1-0.1-1.4-0.4c-0.4-0.3-0.7-0.7-0.8-1.2h0.6c0.3,0.8,0.8,1.1,1.6,1.1c0.5,0,0.9-0.2,1.2-0.5c0.3-0.3,0.4-0.7,0.4-1.2
								v-0.4h0c-0.2,0.3-0.4,0.5-0.7,0.7c-0.3,0.2-0.6,0.2-1,0.2c-0.6,0-1.2-0.2-1.6-0.7c-0.4-0.5-0.7-1-0.7-1.7
								c0-0.7,0.2-1.2,0.7-1.7c0.4-0.5,1-0.7,1.6-0.7c0.7,0,1.3,0.3,1.7,0.9h0v-0.8h0.6V51.5z M31.7,48.6c-0.3-0.4-0.7-0.6-1.2-0.6
								c-0.5,0-0.9,0.2-1.2,0.6c-0.3,0.4-0.5,0.8-0.5,1.3c0,0.5,0.2,0.9,0.5,1.3c0.3,0.4,0.7,0.6,1.2,0.6c0.5,0,0.9-0.2,1.2-0.6
								c0.3-0.4,0.5-0.8,0.5-1.3C32.2,49.4,32,49,31.7,48.6z"/>
						</g>
						<g>
							<path class="st0" d="M34.3,47.1V46h0.6v1.1H34.3z M34.3,52.2v-4.6h0.6v4.6H34.3z"/>
						</g>
						<g>
							<path class="st0" d="M37.4,52.3c-0.4,0-0.7-0.1-1-0.4c-0.3-0.3-0.4-0.6-0.4-1v-0.1h0.6c0,0.6,0.3,0.9,0.8,0.9
								c0.5,0,0.8-0.3,0.8-0.8c0-0.3-0.1-0.5-0.3-0.6c-0.1-0.1-0.2-0.1-0.3-0.2L37.2,50c-0.2-0.1-0.3-0.1-0.4-0.2
								c-0.1-0.1-0.2-0.1-0.3-0.2c-0.2-0.2-0.3-0.5-0.3-0.8c0-0.4,0.1-0.7,0.4-0.9c0.2-0.2,0.5-0.4,0.9-0.4c0.3,0,0.6,0.1,0.8,0.4
								c0.2,0.2,0.3,0.5,0.3,0.9h-0.6c0-0.5-0.2-0.7-0.7-0.7c-0.4,0-0.7,0.2-0.7,0.7c0,0.2,0.1,0.4,0.3,0.5c0.1,0.1,0.2,0.1,0.3,0.2
								l0.1,0c0,0,0.1,0,0.1,0l0.2,0.1c0.2,0.1,0.3,0.1,0.4,0.2c0.1,0.1,0.2,0.2,0.3,0.2c0.2,0.2,0.3,0.5,0.3,0.9
								C38.8,51.9,38.4,52.3,37.4,52.3z"/>
						</g>
						<g>
							<path class="st0" d="M41.1,48.2v4h-0.6v-4h-0.9v-0.5h0.9V46h0.6v1.6h1v0.5H41.1z"/>
						</g>
						<g>
							<path class="st0" d="M43.3,47.1V46h0.6v1.1H43.3z M43.3,52.2v-4.6h0.6v4.6H43.3z"/>
						</g>
						<g>
							<path class="st0" d="M49.7,50.9c-0.5,1-1.2,1.5-2.2,1.5c-0.7,0-1.2-0.2-1.7-0.7c-0.5-0.5-0.7-1-0.7-1.7
								c0-0.7,0.2-1.2,0.7-1.7c0.5-0.5,1-0.7,1.7-0.7c0.5,0,0.9,0.1,1.3,0.4c0.4,0.3,0.7,0.6,0.9,1.1h-0.6c-0.3-0.6-0.8-1-1.5-1
								c-0.5,0-0.9,0.2-1.3,0.5c-0.4,0.4-0.5,0.8-0.5,1.3c0,0.5,0.2,1,0.5,1.3c0.3,0.4,0.8,0.5,1.3,0.5c0.7,0,1.2-0.3,1.5-0.9H49.7z
								"/>
						</g>
						<g>
							<path class="st0" d="M52.1,52.3c-0.4,0-0.7-0.1-1-0.4c-0.3-0.3-0.4-0.6-0.4-1v-0.1h0.6c0,0.6,0.3,0.9,0.8,0.9
								c0.5,0,0.8-0.3,0.8-0.8c0-0.3-0.1-0.5-0.3-0.6c-0.1-0.1-0.2-0.1-0.3-0.2L51.9,50c-0.2-0.1-0.3-0.1-0.4-0.2
								c-0.1-0.1-0.2-0.1-0.3-0.2c-0.2-0.2-0.3-0.5-0.3-0.8c0-0.4,0.1-0.7,0.4-0.9c0.2-0.2,0.5-0.4,0.9-0.4c0.3,0,0.6,0.1,0.8,0.4
								c0.2,0.2,0.3,0.5,0.3,0.9h-0.6c0-0.5-0.2-0.7-0.7-0.7c-0.4,0-0.7,0.2-0.7,0.7c0,0.2,0.1,0.4,0.3,0.5c0.1,0.1,0.2,0.1,0.3,0.2
								l0.1,0c0,0,0.1,0,0.1,0l0.2,0.1c0.2,0.1,0.3,0.1,0.4,0.2c0.1,0.1,0.2,0.2,0.3,0.2c0.2,0.2,0.3,0.5,0.3,0.9
								C53.5,51.9,53,52.3,52.1,52.3z"/>
						</g>
						<g>
							<path class="st0" d="M57.5,47.1V46H58v1.1H57.5z M57.5,52.2v-4.6H58v4.6H57.5z"/>
						</g>
						<g>
							<path class="st0" d="M62.9,52.2v-2.5c0-0.2,0-0.5-0.1-0.7c-0.1-0.2-0.2-0.4-0.3-0.6c-0.3-0.3-0.6-0.4-0.9-0.4
								c-0.4,0-0.7,0.1-1,0.4c-0.1,0.1-0.2,0.3-0.3,0.6c-0.1,0.2-0.1,0.4-0.1,0.6v2.6h-0.6v-4.6h0.6v0.6h0c0.3-0.5,0.7-0.7,1.3-0.7
								c0.6,0,1.1,0.2,1.4,0.6c0.3,0.4,0.5,0.9,0.5,1.6v2.5H62.9z"/>
						</g>
						<g>
							<path class="st0" d="M66.1,48.2v4h-0.6v-4h-0.9v-0.5h0.9V46h0.6v1.6h1v0.5H66.1z"/>
						</g>
						<g>
							<path class="st0" d="M70,48.2c-0.8,0.1-1.2,0.5-1.2,1.4v2.7h-0.6v-4.6h0.6v0.7h0c0.1-0.3,0.3-0.5,0.5-0.6
								c0.2-0.1,0.4-0.2,0.7-0.2V48.2z"/>
						</g>
						<g>
							<path class="st0" d="M75.1,52.2v-0.8h0c-0.4,0.6-1,0.9-1.7,0.9c-0.7,0-1.2-0.2-1.7-0.7c-0.5-0.5-0.7-1-0.7-1.7
								c0-0.7,0.2-1.2,0.7-1.7c0.5-0.5,1-0.7,1.7-0.7c0.8,0,1.3,0.3,1.7,0.9h0v-0.8h0.6v4.6H75.1z M74.6,48.6
								c-0.3-0.4-0.8-0.6-1.2-0.6c-0.5,0-0.9,0.2-1.3,0.5c-0.3,0.4-0.5,0.8-0.5,1.3c0,0.5,0.2,1,0.5,1.3c0.3,0.3,0.8,0.5,1.3,0.5
								c0.5,0,0.9-0.2,1.2-0.5c0.3-0.4,0.5-0.8,0.5-1.3C75.1,49.4,74.9,49,74.6,48.6z"/>
						</g>
						<g>
							<path class="st0" d="M80.4,52.2v-2.5c0-0.2,0-0.5-0.1-0.7c-0.1-0.2-0.2-0.4-0.3-0.6c-0.3-0.3-0.6-0.4-0.9-0.4
								c-0.4,0-0.7,0.1-1,0.4c-0.1,0.1-0.2,0.3-0.3,0.6c-0.1,0.2-0.1,0.4-0.1,0.6v2.6h-0.6v-4.6h0.6v0.6h0c0.3-0.5,0.7-0.7,1.3-0.7
								c0.6,0,1.1,0.2,1.4,0.6c0.3,0.4,0.5,0.9,0.5,1.6v2.5H80.4z"/>
						</g>
						<g>
							<path class="st0" d="M86.9,50.1h-4c0,0.4,0.2,0.8,0.5,1.2c0.3,0.3,0.7,0.5,1.2,0.5c0.3,0,0.7-0.1,0.9-0.3
								c0.3-0.2,0.5-0.5,0.6-0.8h0.6c-0.2,0.5-0.4,0.9-0.8,1.2c-0.4,0.3-0.8,0.4-1.3,0.4c-0.6,0-1.2-0.2-1.6-0.7
								c-0.4-0.5-0.7-1-0.7-1.7c0-0.7,0.2-1.2,0.7-1.7c0.4-0.5,1-0.7,1.6-0.7c0.6,0,1.2,0.2,1.6,0.7c0.4,0.5,0.7,1.1,0.7,1.7
								L86.9,50.1z M86.3,49.6c-0.1-0.5-0.3-0.8-0.6-1.1c-0.3-0.3-0.7-0.4-1.1-0.4c-0.4,0-0.8,0.1-1.1,0.4c-0.3,0.3-0.5,0.7-0.6,1.1
								H86.3z"/>
						</g>
						<g>
							<path class="st0" d="M89.3,48.2v4h-0.6v-4h-0.9v-0.5h0.9V46h0.6v1.6h1v0.5H89.3z"/>
						</g>
					</g>
					<g>
						<g>
							<g>
								<g>
									<path class="st1" d="M6.5,3.1L2,41h8.2l3.1-23.7L19.8,41h7.8l6.5-23.7l3,23.7h8.6L41,2.9H30.7l-6.8,25.4L16.9,3
										C16.9,3,6.7,3.1,6.5,3.1z"/>
									<path class="st1" d="M46.3,41.5h-9.6l-2.8-21.6L28,41.5h-8.5l-6-21.6l-2.8,21.6H1.4L6.1,2.6h0.4c0.2,0,10.4-0.1,10.4-0.1
										l0.4,0l6.6,24l6.4-24h11.2L46.3,41.5z M37.6,40.5h7.6l-4.6-37h-9.5l-7.2,26.9L16.5,3.5c-1.6,0-7.8,0.1-9.6,0.1L2.5,40.5
										h7.2l3.4-25.7l7.1,25.7h7l7-25.7L37.6,40.5z"/>
								</g>
								<g>
									<path class="st1" d="M49.1,3.1l1.1,8.5h15.4c0,0,3.3,0.1,4.8,2.8c0.5,0.9,1.4,5.4-1.6,7.1c-1.7,1-2.6,0.9-2.6,0.9l-6.2,0.1
										l-0.7-5.1l-8.6,0.1l2.9,23.6h8.6l-1.3-10.4h5.5c0,0,4.1,0.1,7.2-2.1c3.1-2.1,6.2-5.1,5.8-12.7C79.3,9.5,75.5,3.7,67.2,2.9
										C52,3,49.1,3.1,49.1,3.1z"/>
									<path class="st1" d="M63,41.6h-9.6l-3-24.6l9.6-0.1l0.7,5.1l5.7-0.1c0.1,0,0.8,0,2.3-0.8c2.5-1.5,1.8-5.6,1.4-6.4
										c-1.3-2.4-4.3-2.5-4.4-2.5H49.8l-1.2-9.5l0.6,0c0,0,3-0.1,18.1-0.1c9.1,0.8,12.7,7.5,12.9,13.4c0.4,8-2.9,10.9-6,13.1
										c-3.2,2.2-7.3,2.2-7.5,2.2h-5L63,41.6z M54.3,40.6h7.6l-1.3-10.4h6.1c0,0,4,0,6.9-2c2.9-2,5.9-4.7,5.6-12.2
										c-0.4-7.1-4.8-11.8-12-12.5C55.5,3.5,51.1,3.6,49.7,3.6l1,7.5h15c0.2,0,3.6,0.1,5.2,3c0.7,1.2,1.4,6-1.7,7.8
										c-1.8,1-2.7,1-2.8,1L59.7,23L59,17.9L51.5,18L54.3,40.6z"/>
								</g>
							</g>
							<g>
								<path class="st1" d="M87,10.7c2.4,0,3.8-1.8,3.8-3.9c0-2.2-1.4-3.9-3.7-3.9c-2.3,0-3.7,1.7-3.7,3.9
									C83.3,8.9,84.7,10.7,87,10.7z"/>
								<path class="st1" d="M87,11.2c-1.2,0-2.3-0.5-3-1.3c-0.7-0.8-1.1-1.9-1.1-3.1c0-1.2,0.4-2.3,1.1-3.1
									c0.8-0.8,1.9-1.3,3.1-1.3c2.4,0,4.2,1.8,4.2,4.4c0,1.2-0.4,2.3-1.1,3.1C89.3,10.7,88.3,11.2,87,11.2z M87.1,3.4
									c-1,0-1.8,0.3-2.4,1c-0.6,0.6-0.9,1.5-0.9,2.4c0,0.9,0.3,1.8,0.9,2.4c0.6,0.6,1.4,1,2.3,1c1,0,1.8-0.3,2.4-1
									c0.6-0.6,0.9-1.4,0.9-2.4C90.2,4.8,88.9,3.4,87.1,3.4z"/>
							</g>
							<g>
								<rect x="83.7" y="14.3" class="st1" width="6.7" height="26.6"/>
								<path class="st1" d="M90.9,41.4h-7.7V13.8h7.7V41.4z M84.2,40.4h5.7V14.8h-5.7V40.4z"/>
							</g>
						</g>
					</g>
				</g>
			</g>
		</g>
	</g>
</g>
</svg>
