<?xml version="1.0" encoding="utf-8"?>
<!-- Generator: Adobe Illustrator 18.0.0, SVG Export Plug-In . SVG Version: 6.00 Build 0)  -->
<!DOCTYPE svg PUBLIC "-//W3C//DTD SVG 1.1//EN" "http://www.w3.org/Graphics/SVG/1.1/DTD/svg11.dtd">
<svg version="1.1" id="Layer_1" xmlns="http://www.w3.org/2000/svg" xmlns:xlink="http://www.w3.org/1999/xlink" x="0px" y="0px"
	 viewBox="0 338.1 612 125.6" enable-background="new 0 338.1 612 125.6" xml:space="preserve">
<g id="Layer_2" display="none">
</g>
<g>
	<polygon fill="#FEFC03" points="60.6,446.5 39.6,378.4 30.3,446.5 3.5,446.5 18.3,338.1 50.8,338.1 73.4,411.4 94.7,338.1 
		127.4,338.1 142.2,446.5 115.2,446.5 105.7,378.4 84.7,446.5 	"/>
	<path fill="#FEFC03" d="M203.8,338.1h-50.6l3.3,24.3h47.2c9.8,0,18.6,4.2,18.6,15.7c0,11.1-7.5,15.7-18.6,15.7c-1,0-8.4,0-15.8,0
		l-2-14.3H159l9.3,67.1l27.1,0l-4.1-29.6h14c22.8,0,44.5-10.6,44.5-38.9C249.8,350.5,230.7,338.1,203.8,338.1"/>
	<path fill="#FEFC03" d="M282.4,377.7v68.5h-6.8v-68.5H282.4z"/>
	<path fill="#FEFC03" d="M313.5,446.2c-13.8,0-20.7-11.7-20.7-26.3c0-14.6,6.9-26.3,20.7-26.3c13.8,0,20.8,11.7,20.8,26.3
		C334.3,434.5,327.4,446.2,313.5,446.2z M313.5,399.6c-8.4,0-13.7,7.2-13.7,20.3c0,13.1,5.4,20.3,13.7,20.3
		c8.4,0,13.7-7.2,13.7-20.3C327.3,406.8,321.9,399.6,313.5,399.6z"/>
	<path fill="#FEFC03" d="M389.3,399.7c-2.9,0-6,0.5-7.7,1.4c1.4,1.7,3.5,5.6,3.5,10.3c0,10-8.2,17.6-18.4,17.6
		c-4.1,0-6.2-0.6-8.9-1.4c-2.7,0.8-4,2.4-4,4.6c0,2.3,1.7,3.7,4.2,3.7c23.9,0,31.5,4.3,31.5,14.1c0,7.4-7.3,13.6-23,13.6
		c-14.1,0-21.7-3.9-21.7-12.2c0-5.1,3.1-7.5,8.5-10.3c-3.9-1.2-6.3-4.2-6.3-7.2c0-4.4,2.9-6.2,6.8-8.6c-4.7-3.6-6.9-8.5-6.9-14.1
		c0-10.7,8.3-17.6,19.1-17.6c5.4,0,9.2,1.2,12.5,3.5c3-2.1,7.1-4.1,10.9-4.5V399.7z M365.4,442.9c-10.9,0-14.1,4.8-14.1,8.4
		c0,3.8,2.3,6.3,16.3,6.3c8.3,0,15.1-2.3,15.2-7.3C382.7,445.4,377.7,442.9,365.4,442.9z M365.7,399.7c-7.9,0-12.2,5-12.2,11.6
		c0,6.7,5.2,11.6,13,11.6c8,0,12-5.2,12-11.2C378.5,404.3,374.2,399.7,365.7,399.7z"/>
	<path fill="#FEFC03" d="M422.7,432.1c3.3,4.8,8.2,7.8,14.5,7.8c7.6,0,10.9-4.1,10.9-8.4c0-12.9-30-6-29.4-24.5
		c0.3-8.8,7-13.7,16.8-13.6c6.6,0.1,13.9,3.7,17.3,8.9l-4.9,4.3c-3.9-4.8-7.6-7.1-13.1-7.1c-6,0-9.2,3-9.2,7.5
		c0,11,29.4,5.4,29.4,24.3c0,9.8-8.6,14.8-17.7,14.8c-7.9,0-15.6-3.4-20.3-9.7L422.7,432.1z"/>
	<path fill="#FEFC03" d="M473.6,396.5v-16.8h6.8v16.8h11.4v5.9h-11.4v34.5c0,2.3,1.6,3.4,5.6,3.4c2.3,0,4.3-0.2,6.1-0.5v5.6
		c-1.2,0.4-4,0.8-8,0.8c-7.4,0-10.5-1.9-10.5-8.2v-35.7h-8.1v-5.9H473.6z"/>
	<path fill="#FEFC03" d="M552.5,409.7c-1.9-6.1-5.9-10-12-10c-8.6,0-13.7,7.4-13.7,20.2c0,12.8,5.1,20.2,13.7,20.2
		c6.4,0,10-2.1,13.9-9.3l5.7,2.5c-5.1,8.6-9.5,12.8-19.6,12.8c-12.6,0-20.7-9.9-20.7-26.3c0-16.4,8.1-26.3,20.7-26.3
		c10.4,0,15.3,5.8,18.5,13.7L552.5,409.7z"/>
	<path fill="#FEFC03" d="M576,432.4c3.3,4.8,8.2,7.8,14.5,7.8c7.6,0,10.9-4.1,10.9-8.4c0-12.9-30-6-29.4-24.6
		c0.3-8.8,7-13.7,16.8-13.6c6.6,0.1,13.9,3.7,17.3,8.9l-4.9,4.3c-3.9-4.8-7.6-7.1-13.1-7.1c-5.9,0-9.2,3-9.2,7.5
		c0,11,29.4,5.4,29.4,24.3c0,9.8-8.6,14.8-17.7,14.8c-7.9,0-15.6-3.4-20.3-9.6L576,432.4z"/>
	<g>
		<rect x="399.8" y="399.5" fill="#FEFC03" width="6.8" height="46.7"/>
		<rect x="399.8" y="385.5" fill="#FEFC03" width="6.8" height="6.9"/>
	</g>
	<g>
		<rect x="502.5" y="399.5" fill="#FEFC03" width="6.8" height="46.7"/>
		<rect x="502.5" y="385.5" fill="#FEFC03" width="6.8" height="6.9"/>
	</g>
</g>
</svg>
